<svg width="40" height="40" viewBox="0 0 40 40" fill="none" xmlns="http://www.w3.org/2000/svg">
<path d="M17.5 25.4959C17.5 23.5974 19.039 22.0583 20.9375 22.0583H29.0625C33.6107 22.2145 33.6137 28.7762 29.0624 28.9334H20.9375C19.039 28.9334 17.5 27.3943 17.5 25.4959Z" fill="#193503"/>
<path d="M29.0623 29.5584H20.9373C15.5574 29.3551 15.5547 21.6376 20.9373 21.4333C20.9373 21.4333 29.0623 21.4333 29.0623 21.4333C34.4421 21.6366 34.4448 29.3541 29.0623 29.5584ZM20.9373 22.6834C17.2226 22.8004 17.2192 28.1903 20.9373 28.3084C20.9373 28.3084 29.0623 28.3084 29.0623 28.3084C32.7769 28.1913 32.7803 22.8014 29.0622 22.6834H20.9373Z" fill="#193503"/>
<path d="M34.375 7.68333C34.3909 6.86233 35.6092 6.86245 35.625 7.68336C35.6091 8.50434 34.3908 8.50422 34.375 7.68333ZM31.875 7.68333C31.8909 6.86233 33.1092 6.86245 33.125 7.68336C33.1091 8.50434 31.8908 8.50422 31.875 7.68333ZM29.375 7.68333C29.3909 6.86233 30.6092 6.86245 30.625 7.68336C30.6091 8.50434 29.3908 8.50422 29.375 7.68333Z" fill="#193503"/>
<path d="M16.8746 10.1833H14.3746C11.9029 10.2479 11.9021 13.8688 14.3746 13.9333H16.8746C19.3463 13.8688 19.3471 10.2479 16.8746 10.1833Z" fill="#193503"/>
<path d="M24.3746 10.1833H21.8746C19.4029 10.2479 19.4021 13.8688 21.8746 13.9333H24.3746C26.8463 13.8688 26.8471 10.2479 24.3746 10.1833Z" fill="#193503"/>
<path d="M33.7496 10.1833H29.3746C26.9034 10.2477 26.9016 13.8687 29.3746 13.9333H33.7496C36.2207 13.869 36.2226 10.248 33.7496 10.1833Z" fill="#193503"/>
<path d="M23.1247 16.4333H13.1247C12.3063 16.4207 12.3007 15.1971 13.1248 15.1833H23.1247C23.9432 15.196 23.9488 16.4196 23.1247 16.4333Z" fill="#193503"/>
<path d="M35 16.4333H25.625C25.2795 16.4333 25 16.1538 25 15.8083C25 15.4629 25.2795 15.1833 25.625 15.1833H35C35.8187 15.196 35.8239 16.4196 35 16.4333Z" fill="#193503"/>
<path d="M23.1247 18.9333H13.1247C12.3063 18.9207 12.3007 17.6971 13.1248 17.6833H23.1247C23.9432 17.696 23.9488 18.9196 23.1247 18.9333Z" fill="#193503"/>
<path d="M35 18.9333H25.625C25.2795 18.9333 25 18.6538 25 18.3083C25 17.9629 25.2795 17.6833 25.625 17.6833H35C35.8187 17.696 35.8239 18.9196 35 18.9333Z" fill="#193503"/>
<path d="M16.8749 21.4333H13.1249C12.3044 21.4201 12.3025 20.1969 13.1249 20.1833H16.8749C17.6954 20.1966 17.6973 21.4198 16.8749 21.4333Z" fill="#193503"/>
<path d="M35 4.55835H5C2.93213 4.55835 1.25 6.24048 1.25 8.30835V28.3083C1.25 30.3762 2.93213 32.0583 5 32.0583H35C37.0679 32.0583 38.75 30.3762 38.75 28.3083V8.30835C38.75 6.24048 37.0679 4.55835 35 4.55835ZM8.75 23.3083H5.625C4.80432 23.295 4.80274 22.0719 5.62502 22.0583C5.625 22.0583 8.75 22.0583 8.75 22.0583C9.57068 22.0716 9.57226 23.2948 8.75 23.3083ZM8.75 20.8083H3.75C2.9299 20.7952 2.92727 19.572 3.75003 19.5583C3.75 19.5583 8.75 19.5583 8.75 19.5583C9.5701 19.5715 9.57273 20.7947 8.75 20.8083ZM8.75 18.3083H3.75C2.9299 18.2952 2.92727 17.072 3.75003 17.0583C3.75 17.0583 8.75 17.0583 8.75 17.0583C9.5701 17.0715 9.57273 18.2947 8.75 18.3083ZM6.25 15.8083C4.52697 15.8083 3.125 14.4064 3.125 12.6833C3.27187 8.54742 9.22875 8.54848 9.37501 12.6834C9.37501 14.4064 7.97302 15.8083 6.25 15.8083ZM37.5 28.3083C37.5 29.6871 36.3788 30.8083 35 30.8083H11.875V5.80835H35C36.3788 5.80835 37.5 6.92957 37.5 8.30835V28.3083Z" fill="#193503"/>
<path d="M35.5141 32.4209L34.1884 31.0946L35.3285 29.9545C36.3449 29.0046 35.8607 27.1526 34.5082 26.8234C34.5082 26.8234 26.5877 24.6053 26.5877 24.6053C25.6873 24.3239 24.7639 25.2432 25.0472 26.1459C25.0472 26.1459 27.2652 34.0664 27.2652 34.0664C27.5949 35.4179 29.446 35.9038 30.3963 34.8867C30.3963 34.8867 31.5364 33.7466 31.5364 33.7466L32.8627 35.0723C33.1062 35.3158 33.4267 35.4379 33.7465 35.4379C34.4209 35.5093 35.0737 34.5837 35.5141 34.1885C36.0017 33.7014 36.0017 32.9079 35.5141 32.4209Z" fill="#E4FE7D"/>
</svg>
