<svg width="40" height="40" viewBox="0 0 40 40" fill="none" xmlns="http://www.w3.org/2000/svg">
<path d="M32.9474 26.875C31.0737 26.7648 29.5933 25.9408 28.9709 24.375H18.125C16.0571 24.375 14.375 22.6929 14.375 20.625V8.75C14.375 6.68213 16.0571 5 18.125 5H35C37.0679 5 38.75 6.68213 38.75 8.75V20.625C38.75 22.6929 37.0679 24.375 35 24.375H32.912C32.8339 24.9091 33.0005 25.4309 33.3826 25.8014C33.7868 26.1676 33.4914 26.8937 32.9474 26.875ZM18.125 6.25C16.7462 6.25 15.625 7.37122 15.625 8.75V20.625C15.625 22.0038 16.7462 23.125 18.125 23.125H29.4373C29.7321 23.125 29.9872 23.3313 30.0482 23.6194C30.2378 24.4861 30.8729 25.0573 31.7358 25.3784C31.5841 24.7783 31.5156 23.1811 32.4328 23.125C32.4329 23.125 35 23.125 35 23.125C36.3788 23.125 37.5 22.0038 37.5 20.625V8.75C37.5 7.37122 36.3788 6.25 35 6.25H18.125Z" fill="#193503"/>
<path d="M33.125 10H29.375C27.9943 10 26.875 11.1193 26.875 12.5V16.25C26.875 17.6307 27.9943 18.75 29.375 18.75H33.125C34.5057 18.75 35.625 17.6307 35.625 16.25V12.5C35.625 11.1193 34.5057 10 33.125 10Z" fill="#193503"/>
<path d="M21.875 13.125H5C2.93213 13.125 1.25 14.8071 1.25 16.875V28.75C1.25 30.8179 2.93213 32.5 5 32.5H7.08801C7.16614 33.0341 6.99951 33.5559 6.61743 33.9264C6.43006 34.1083 6.37512 34.3872 6.4801 34.6265C6.58454 34.8652 6.82975 35.0147 7.08862 34.9988C8.95578 34.8741 10.407 34.0568 11.0291 32.5H21.875C23.9429 32.5 25.625 30.8179 25.625 28.75V16.875C25.625 14.8071 23.9429 13.125 21.875 13.125ZM8.75 26.875C6.33789 26.875 4.375 24.9121 4.375 22.5C4.5953 16.704 12.9056 16.7056 13.125 22.5001C13.125 24.9121 11.1621 26.875 8.75 26.875Z" fill="#193503"/>
<path d="M22.5 18.7499H14.375C14.0295 18.7499 13.75 18.4704 13.75 18.1249C13.75 17.7795 14.0295 17.4999 14.375 17.4999H20.9912L20.1831 16.6918C19.6081 16.1121 20.4862 15.2322 21.0669 15.8081C21.0669 15.808 22.9419 17.683 22.9419 17.683C23.3365 18.0518 23.0404 18.7684 22.5 18.7499Z" fill="#E4FE7D"/>
<path d="M16.25 23.1251C16.0901 23.1251 15.9302 23.0641 15.8081 22.942L13.9331 21.067C13.5389 20.6981 13.8343 19.9817 14.375 20.0001C14.375 20.0001 22.5 20.0001 22.5 20.0001C23.3187 20.013 23.3239 21.2362 22.5 21.2501H15.8838L16.6919 22.0582C17.0905 22.4295 16.7845 23.144 16.25 23.1251Z" fill="#E4FE7D"/>
</svg>
