<svg width="24" height="24" viewBox="0 0 24 24" fill="none" xmlns="http://www.w3.org/2000/svg">
<path d="M10.5 15.2974C10.5 14.1583 11.4234 13.2349 12.5625 13.2349H17.4375C20.1664 13.3286 20.1682 17.2656 17.4375 17.3599H12.5625C11.4234 17.3599 10.5 16.4365 10.5 15.2974Z" fill="#E1FE6E"/>
<path d="M17.4372 17.7349H12.5622C9.33426 17.6129 9.33262 12.9824 12.5622 12.8599C12.5622 12.8599 17.4372 12.8599 17.4372 12.8599C20.6651 12.9818 20.6667 17.6123 17.4372 17.7349ZM12.5622 13.6099C10.3334 13.6801 10.3313 16.914 12.5622 16.9849C12.5622 16.9849 17.4372 16.9849 17.4372 16.9849C19.6659 16.9146 19.668 13.6807 17.4371 13.6099H12.5622Z" fill="#E1FE6E"/>
<path d="M20.625 4.6099C20.6345 4.1173 21.3655 4.11737 21.375 4.60992C21.3655 5.10251 20.6345 5.10244 20.625 4.6099ZM19.125 4.6099C19.1345 4.1173 19.8655 4.11737 19.875 4.60992C19.8655 5.10251 19.1345 5.10244 19.125 4.6099ZM17.625 4.6099C17.6345 4.1173 18.3655 4.11737 18.375 4.60992C18.3655 5.10251 17.6345 5.10244 17.625 4.6099Z" fill="#E1FE6E"/>
<path d="M10.1242 6.10986H8.62417C7.14115 6.14858 7.14065 8.32112 8.6242 8.35986H10.1242C11.6072 8.32115 11.6077 6.14861 10.1242 6.10986Z" fill="#E1FE6E"/>
<path d="M14.6242 6.10986H13.1242C11.6411 6.14858 11.6406 8.32112 13.1242 8.35986H14.6242C16.1072 8.32115 16.1077 6.14861 14.6242 6.10986Z" fill="#E1FE6E"/>
<path d="M20.2492 6.10986H17.6242C16.1415 6.14845 16.1404 8.32106 17.6242 8.35986H20.2492C21.7319 8.32127 21.733 6.14866 20.2492 6.10986Z" fill="#E1FE6E"/>
<path d="M13.8754 9.85986H7.87543C7.38435 9.85229 7.38099 9.11814 7.87545 9.10986H13.8754C14.3665 9.11743 14.3699 9.85159 13.8754 9.85986Z" fill="#E1FE6E"/>
<path d="M21 9.85986H15.375C15.1677 9.85986 15 9.69214 15 9.48486C15 9.27759 15.1677 9.10986 15.375 9.10986H21C21.4912 9.11747 21.4943 9.8516 21 9.85986Z" fill="#E1FE6E"/>
<path d="M13.8754 11.3599H7.87543C7.38435 11.3523 7.38099 10.6181 7.87545 10.6099H13.8754C14.3665 10.6174 14.3699 11.3516 13.8754 11.3599Z" fill="#E1FE6E"/>
<path d="M21 11.3599H15.375C15.1677 11.3599 15 11.1921 15 10.9849C15 10.7776 15.1677 10.6099 15.375 10.6099H21C21.4912 10.6175 21.4943 11.3516 21 11.3599Z" fill="#E1FE6E"/>
<path d="M10.1236 12.8599H7.87356C7.38126 12.8519 7.38011 12.118 7.87357 12.1099H10.1236C10.6158 12.1178 10.617 12.8517 10.1236 12.8599Z" fill="#E1FE6E"/>
<path d="M21 2.73486H3C1.75928 2.73486 0.75 3.74414 0.75 4.98486V16.9849C0.75 18.2256 1.75928 19.2349 3 19.2349H21C22.2407 19.2349 23.25 18.2256 23.25 16.9849V4.98486C23.25 3.74414 22.2407 2.73486 21 2.73486ZM5.25 13.9849H3.375C2.88259 13.9769 2.88165 13.243 3.37502 13.2349C3.375 13.2349 5.25 13.2349 5.25 13.2349C5.74241 13.2428 5.74335 13.9767 5.25 13.9849ZM5.25 12.4849H2.25C1.75794 12.477 1.75636 11.743 2.25002 11.7349C2.25 11.7349 5.25 11.7349 5.25 11.7349C5.74206 11.7427 5.74364 12.4767 5.25 12.4849ZM5.25 10.9849H2.25C1.75794 10.977 1.75636 10.243 2.25002 10.2349C2.25 10.2349 5.25 10.2349 5.25 10.2349C5.74206 10.2427 5.74364 10.9767 5.25 10.9849ZM3.75 9.48486C2.71618 9.48486 1.875 8.64368 1.875 7.60986C1.96312 5.12831 5.53725 5.12894 5.625 7.60989C5.625 8.64367 4.78381 9.48486 3.75 9.48486ZM22.5 16.9849C22.5 17.8121 21.8273 18.4849 21 18.4849H7.125V3.48486H21C21.8273 3.48486 22.5 4.15759 22.5 4.98486V16.9849Z" fill="#E1FE6E"/>
<path d="M21.3075 19.4525L20.5121 18.6567L21.1961 17.9726C21.806 17.4027 21.5154 16.2915 20.7039 16.094C20.704 16.094 15.9516 14.7632 15.9516 14.7632C15.4114 14.5943 14.8574 15.1459 15.0273 15.6875C15.0273 15.6875 16.3581 20.4398 16.3581 20.4398C16.556 21.2507 17.6666 21.5422 18.2368 20.9319C18.2368 20.932 18.9209 20.2479 18.9209 20.2479L19.7167 21.0433C19.8628 21.1894 20.055 21.2627 20.2469 21.2627C20.6516 21.3056 21.0432 20.7502 21.3075 20.513C21.6001 20.2208 21.6001 19.7447 21.3075 19.4525Z" fill="#E1FE6E"/>
</svg>
