<svg width="40" height="41" viewBox="0 0 40 41" fill="none" xmlns="http://www.w3.org/2000/svg">
<g clip-path="url(#clip0_129_89)">
<path d="M34.375 39.5732V34.8857C34.375 34.4542 34.0253 34.1045 33.5937 34.1045C33.1622 34.1045 32.8125 34.4542 32.8125 34.8857V38.792H28.9062C28.4747 38.792 28.125 39.1417 28.125 39.5732C28.125 40.0048 28.4747 40.3545 28.9062 40.3545H33.5937C34.0253 40.3545 34.375 40.0048 34.375 39.5732Z" fill="#1A1B13"/>
<path d="M17.9687 36.7607C17.9687 37.1923 17.619 37.542 17.1875 37.542C16.756 37.542 16.4062 37.1923 16.4062 36.7607C16.4062 36.3292 16.756 35.9795 17.1875 35.9795C17.619 35.9795 17.9687 36.3292 17.9687 36.7607Z" fill="#1A1B13"/>
<path d="M13.5254 37.1492C13.5815 37.1614 13.6374 37.1675 13.6926 37.1675C14.0518 37.1675 14.3756 36.9179 14.4549 36.5523C14.5468 36.1305 14.2795 35.7143 13.858 35.6227C6.73339 34.0706 1.5625 27.6494 1.5625 20.3545C1.5625 11.7388 8.57177 4.72949 17.1875 4.72949C24.1446 4.72949 30.3119 9.43835 32.2116 16.0576H32.1875C31.9946 16.0576 31.8081 16.129 31.665 16.2581L29.5022 18.2042C28.4833 12.3384 23.3575 7.85449 17.1875 7.85449C10.2948 7.85449 4.6875 13.4621 4.6875 20.3545C4.6875 27.2469 10.2948 32.8545 17.1875 32.8545C23.3575 32.8545 28.4839 28.3699 29.5016 22.5041L31.6647 24.4508C31.8081 24.5799 31.9943 24.6514 32.1875 24.6514H32.2116C30.6396 30.1418 26.1435 34.3965 20.517 35.6224C20.0952 35.7143 19.8282 36.1305 19.9197 36.5523C19.9994 36.9179 20.3229 37.1672 20.6824 37.1672C20.7376 37.1672 20.7934 37.1614 20.8496 37.1492C27.185 35.7689 32.218 30.898 33.8315 24.6514H39.2187C39.5068 24.6514 39.7714 24.4927 39.9075 24.2388C40.0433 23.9848 40.0287 23.6766 39.8687 23.4368L37.814 20.3545L39.8687 17.2722C40.0287 17.0326 40.0436 16.7241 39.9075 16.4702C39.7714 16.2163 39.5068 16.0576 39.2187 16.0576H33.8305C31.8817 8.53228 25.0555 3.16699 17.1875 3.16699C7.71026 3.16699 0 10.8773 0 20.3545C0 28.5536 5.78704 35.4637 13.5254 37.1492ZM17.1875 31.292C11.1566 31.292 6.24999 26.3854 6.24999 20.3545C6.24999 14.3236 11.1566 9.41699 17.1875 9.41699C22.9193 9.41699 27.6394 13.8066 28.0896 19.4762L27.9815 19.5732H24.9588C24.5654 15.6319 21.2301 12.5435 17.1875 12.5435C12.8805 12.5435 9.37652 16.0475 9.37652 20.3545C9.37652 24.6614 12.8805 28.1654 17.1875 28.1654C21.2304 28.1654 24.5654 25.0774 24.9588 21.1357H27.9812L28.089 21.2325C27.6397 26.9023 22.9202 31.292 17.1875 31.292ZM20.2136 19.5732C19.8657 18.2268 18.641 17.2295 17.1875 17.2295C15.4645 17.2295 14.0625 18.6315 14.0625 20.3545C14.0625 22.0775 15.4645 23.4795 17.1875 23.4795C18.641 23.4795 19.8657 22.4812 20.2136 21.1348H23.3844C22.9986 24.2128 20.3677 26.6029 17.1875 26.6029C13.7421 26.6029 10.939 23.7999 10.939 20.3545C10.939 16.909 13.7421 14.106 17.1875 14.106C20.3677 14.106 22.9986 16.4955 23.3844 19.5732H20.2136ZM18.75 20.3545C18.75 21.216 18.049 21.917 17.1875 21.917C16.326 21.917 15.625 21.216 15.625 20.3545C15.625 19.493 16.326 18.792 17.1875 18.792C18.049 18.792 18.75 19.493 18.75 20.3545ZM36.2249 20.7878L37.7591 23.0889H32.4872L29.6063 20.4961C29.5761 20.4308 29.5373 20.3703 29.4909 20.3163L32.4872 17.6201H37.7591L36.2249 19.9211C36.0501 20.1836 36.0501 20.5254 36.2249 20.7878Z" fill="#1A1B13"/>
<path d="M0.781249 6.60449C1.21277 6.60449 1.5625 6.25476 1.5625 5.82324V1.91699H5.46875C5.90026 1.91699 6.24999 1.56726 6.24999 1.13574C6.24999 0.704223 5.90026 0.354492 5.46875 0.354492H0.781249C0.349731 0.354492 0 0.704223 0 1.13574V5.82324C0 6.25476 0.349731 6.60449 0.781249 6.60449Z" fill="#1A1B13"/>
<path d="M33.5937 6.60449C34.0253 6.60449 34.375 6.25476 34.375 5.82324V1.13574C34.375 0.704223 34.0253 0.354492 33.5937 0.354492H28.9062C28.4747 0.354492 28.125 0.704223 28.125 1.13574C28.125 1.56726 28.4747 1.91699 28.9062 1.91699H32.8125V5.82324C32.8125 6.25476 33.1622 6.60449 33.5937 6.60449Z" fill="#1A1B13"/>
<path d="M0.781249 40.3545H5.46875C5.90026 40.3545 6.24999 40.0048 6.24999 39.5732C6.24999 39.1417 5.90026 38.792 5.46875 38.792H1.5625V34.8857C1.5625 34.4542 1.21277 34.1045 0.781249 34.1045C0.349731 34.1045 0 34.4542 0 34.8857V39.5732C0 40.0048 0.349731 40.3545 0.781249 40.3545Z" fill="#1A1B13"/>
</g>
<defs>
<clipPath id="clip0_129_89">
<rect width="40" height="40" fill="white" transform="translate(0 0.354492)"/>
</clipPath>
</defs>
</svg>
