<svg width="40" height="41" viewBox="0 0 40 41" fill="none" xmlns="http://www.w3.org/2000/svg">
<g clip-path="url(#clip0_129_66)">
<path d="M22.5 40.3545H17.5C17.3342 40.3545 17.1753 40.2886 17.0581 40.1714C16.9408 40.0542 16.875 39.8953 16.875 39.7295V22.8545C16.875 22.523 17.0067 22.205 17.2411 21.9706C17.4755 21.7362 17.7935 21.6045 18.125 21.6045H21.875C22.2065 21.6045 22.5245 21.7362 22.7589 21.9706C22.9933 22.205 23.125 22.523 23.125 22.8545V39.7295C23.125 39.8953 23.0592 40.0542 22.9419 40.1714C22.8247 40.2886 22.6658 40.3545 22.5 40.3545ZM18.125 39.1045H21.875V22.8545H18.125V39.1045Z" fill="#1A1B13"/>
<path d="M14.375 40.3545H9.375C9.20924 40.3545 9.05027 40.2886 8.93306 40.1714C8.81585 40.0542 8.75 39.8953 8.75 39.7295V30.3545C8.75 30.023 8.8817 29.705 9.11612 29.4706C9.35054 29.2362 9.66848 29.1045 10 29.1045H13.75C14.0815 29.1045 14.3995 29.2362 14.6339 29.4706C14.8683 29.705 15 30.023 15 30.3545V39.7295C15 39.8953 14.9342 40.0542 14.8169 40.1714C14.6997 40.2886 14.5408 40.3545 14.375 40.3545ZM10 39.1045H13.75V30.3545H10V39.1045Z" fill="#1A1B13"/>
<path d="M6.25 40.3545H1.25C1.08424 40.3545 0.925268 40.2886 0.808058 40.1714C0.690848 40.0542 0.625 39.8953 0.625 39.7295V35.3545C0.625 35.023 0.756696 34.705 0.991117 34.4706C1.22554 34.2362 1.54348 34.1045 1.875 34.1045H5.625C5.95652 34.1045 6.27446 34.2362 6.50888 34.4706C6.7433 34.705 6.875 35.023 6.875 35.3545V39.7295C6.875 39.8953 6.80915 40.0542 6.69194 40.1714C6.57473 40.2886 6.41576 40.3545 6.25 40.3545ZM1.875 39.1045H5.625V35.3545H1.875V39.1045Z" fill="#1A1B13"/>
<path d="M30.625 40.3545H25.625C25.4592 40.3545 25.3003 40.2886 25.1831 40.1714C25.0658 40.0542 25 39.8953 25 39.7295V14.1045C25 13.773 25.1317 13.455 25.3661 13.2206C25.6005 12.9862 25.9185 12.8545 26.25 12.8545H30C30.3315 12.8545 30.6495 12.9862 30.8839 13.2206C31.1183 13.455 31.25 13.773 31.25 14.1045V39.7295C31.25 39.8953 31.1842 40.0542 31.0669 40.1714C30.9497 40.2886 30.7908 40.3545 30.625 40.3545ZM26.25 39.1045H30V14.1045H26.25V39.1045Z" fill="#1A1B13"/>
<path d="M38.75 40.3545H33.75C33.5842 40.3545 33.4253 40.2886 33.3081 40.1714C33.1908 40.0542 33.125 39.8953 33.125 39.7295V6.60449C33.125 6.27297 33.2567 5.95503 33.4911 5.72061C33.7255 5.48619 34.0435 5.35449 34.375 5.35449H38.125C38.4565 5.35449 38.7745 5.48619 39.0089 5.72061C39.2433 5.95503 39.375 6.27297 39.375 6.60449V9.10449H38.125V6.60449H34.375V39.1045H38.125V12.8545H39.375V39.7295C39.375 39.8953 39.3092 40.0542 39.1919 40.1714C39.0747 40.2886 38.9158 40.3545 38.75 40.3545Z" fill="#1A1B13"/>
<path d="M38.125 10.3545H39.375V11.6051H38.125V10.3545Z" fill="#1A1B13"/>
<path d="M18.6721 9.18628C18.6194 8.79219 18.5401 8.40212 18.4346 8.01878L19.6396 7.68628C19.7604 8.12477 19.851 8.57102 19.9108 9.0219L18.6721 9.18628Z" fill="#1A1B13"/>
<path d="M9.99989 20.3544C8.03098 20.3544 6.10588 19.7731 4.46595 18.6835C2.82602 17.5939 1.54423 16.0444 0.781286 14.2294C0.0183417 12.4143 -0.191807 10.4143 0.177185 8.48032C0.546178 6.54629 1.47789 4.76422 2.85551 3.35753C4.00118 2.18733 5.41671 1.3164 6.97773 0.821268C8.53874 0.326139 10.1975 0.221966 11.8082 0.517901C13.4189 0.813835 14.9322 1.50082 16.2153 2.5185C17.4984 3.53617 18.5119 4.85339 19.1668 6.35441L18.0218 6.85441C17.3418 5.29276 16.2202 3.96387 14.795 3.03114C13.3699 2.09842 11.7032 1.60251 9.99989 1.60441H9.90739C8.18086 1.62266 6.49832 2.15131 5.07161 3.1238C3.6449 4.0963 2.5378 5.46915 1.88969 7.06953C1.24159 8.6699 1.08145 10.4263 1.42945 12.1174C1.77744 13.8086 2.61801 15.3591 3.84532 16.5736C5.07263 17.788 6.63182 18.6122 8.32658 18.9424C10.0213 19.2726 11.7759 19.094 13.3694 18.4291C14.9629 17.7642 16.324 16.6428 17.2814 15.2059C18.2389 13.769 18.7498 12.081 18.7499 10.3544H19.9999C19.9918 12.9862 18.9498 15.5093 17.0986 17.38C15.2473 19.2506 12.7352 20.3188 10.1036 20.3544H9.99989Z" fill="#1A1B13"/>
<path d="M9.375 4.10449H10.625V5.97949H9.375V4.10449Z" fill="#1A1B13"/>
<path d="M10.9375 15.3545H7.5V14.1045H10.9375C11.3519 14.1045 11.7493 13.9399 12.0424 13.6468C12.3354 13.3538 12.5 12.9564 12.5 12.542C12.5 12.1276 12.3354 11.7302 12.0424 11.4371C11.7493 11.1441 11.3519 10.9795 10.9375 10.9795H9.0625C8.31658 10.9795 7.60121 10.6832 7.07376 10.1557C6.54632 9.62828 6.25 8.91291 6.25 8.16699C6.25 7.42107 6.54632 6.7057 7.07376 6.17825C7.60121 5.65081 8.31658 5.35449 9.0625 5.35449H12.5V6.60449H9.0625C8.6481 6.60449 8.25067 6.76911 7.95765 7.06214C7.66462 7.35516 7.5 7.75259 7.5 8.16699C7.5 8.58139 7.66462 8.97882 7.95765 9.27185C8.25067 9.56487 8.6481 9.72949 9.0625 9.72949H10.9375C11.6834 9.72949 12.3988 10.0258 12.9262 10.5533C13.4537 11.0807 13.75 11.7961 13.75 12.542C13.75 13.2879 13.4537 14.0033 12.9262 14.5307C12.3988 15.0582 11.6834 15.3545 10.9375 15.3545Z" fill="#1A1B13"/>
<path d="M9.375 14.7295H10.625V16.6045H9.375V14.7295Z" fill="#1A1B13"/>
<path d="M0.625 39.1045H39.375V40.3545H0.625V39.1045Z" fill="#1A1B13"/>
<path d="M3.56637 30.7963L2.68262 29.9125L9.55762 23.0375C9.6748 22.9203 9.83375 22.8544 9.99949 22.8544H13.4732L25.7857 9.30876C25.8445 9.2442 25.9161 9.19266 25.996 9.15746C26.0758 9.12226 26.1622 9.10418 26.2495 9.10438H27.837L35.1501 0.57251L36.0989 1.38501L28.5989 10.135C28.5403 10.2036 28.4676 10.2588 28.3857 10.2967C28.3038 10.3345 28.2147 10.3542 28.1245 10.3544H26.5257L14.212 23.9C14.1534 23.9644 14.082 24.0159 14.0023 24.0511C13.9227 24.0863 13.8366 24.1044 13.7495 24.1044H10.2582L3.56637 30.7963Z" fill="#1A1B13"/>
<path d="M0.179688 32.4092L1.4295 31.1594L2.31338 32.0433L1.06357 33.2931L0.179688 32.4092Z" fill="#1A1B13"/>
<path d="M36.25 4.10449H35V1.60449H32.5V0.354492H35.625C35.7908 0.354492 35.9497 0.42034 36.0669 0.53755C36.1842 0.654761 36.25 0.813732 36.25 0.979492V4.10449Z" fill="#1A1B13"/>
</g>
<defs>
<clipPath id="clip0_129_66">
<rect width="40" height="40" fill="white" transform="translate(0 0.354492)"/>
</clipPath>
</defs>
</svg>
