<svg width="45" height="45" viewBox="0 0 45 45" fill="none" xmlns="http://www.w3.org/2000/svg">
<g clip-path="url(#clip0_150_68)">
<path d="M44.957 44.1067L38.3652 26.7422C38.3105 26.5979 38.2068 26.4775 38.0725 26.4019L31.0513 22.4463L33.1012 19.1961C34.3592 17.1997 35.0243 14.8927 35.0243 12.5244C35.0243 5.6184 29.4059 0 22.4999 0C15.5939 0 9.97554 5.6184 9.97554 12.5244C9.97554 14.8933 10.6409 17.2004 11.8996 19.1962C11.9333 19.2498 13.949 22.4464 13.949 22.4464L6.9275 26.4019C6.79312 26.4775 6.68949 26.5979 6.63474 26.7422L0.042953 44.1067C-0.0555722 44.3661 0.0190468 44.6595 0.229369 44.8405C0.439954 45.0215 0.740979 45.0513 0.982766 44.915L11.5795 38.945L22.1763 44.915C22.3771 45.0281 22.6226 45.0281 22.8235 44.915L33.4202 38.945L44.017 44.915C44.1181 44.972 44.2296 44.9999 44.3405 44.9999C44.4949 44.9999 44.648 44.9459 44.7705 44.8406C44.981 44.6595 45.0555 44.3661 44.957 44.1067ZM23.1592 34.164C23.5716 34.0184 23.9291 33.7381 24.1718 33.3539C24.2053 33.3012 29.8169 24.4037 29.8169 24.4037L32.675 37.8516L23.1592 43.2126V34.164ZM13.0148 18.4929C11.889 16.7078 11.294 14.644 11.294 12.5243C11.294 6.34525 16.321 1.31827 22.5 1.31827C28.6791 1.31827 33.7061 6.34525 33.7061 12.5243C33.7061 14.6435 33.1112 16.7075 31.9861 18.4929C31.8981 18.6323 23.2126 32.4058 23.0611 32.6437C23.0597 32.6458 23.0585 32.6479 23.0572 32.6499C22.9349 32.8433 22.7267 32.9588 22.5 32.9588C22.2732 32.9588 22.064 32.8427 21.9416 32.6502C21.8535 32.5106 13.1507 18.7099 13.0178 18.4977C13.0168 18.4961 13.0158 18.4945 13.0148 18.4929ZM7.7825 27.4332L13.9274 23.9715L12.8569 29.008C12.7813 29.3641 13.0086 29.7141 13.3646 29.7899C13.4108 29.7997 13.457 29.8044 13.5023 29.8044C13.8069 29.8044 14.0806 29.592 14.1464 29.2822L15.1832 24.4041L20.8276 33.3557C21.0712 33.7388 21.429 34.0185 21.8407 34.1639V43.2127L12.325 37.8517L13.5983 31.8612C13.674 31.505 13.4467 31.1551 13.0906 31.0793C12.7342 31.0032 12.3844 31.231 12.3088 31.5869L10.9967 37.76L1.92144 42.873L7.7825 27.4332ZM34.0033 37.7601L31.0728 23.9714L37.2174 27.4332L43.0786 42.873L34.0033 37.7601Z" fill="#1A1B13"/>
<path d="M29.752 12.5244C29.752 8.52627 26.4991 5.27344 22.501 5.27344C18.5028 5.27344 15.25 8.52627 15.25 12.5244C15.25 16.5226 18.5028 19.7754 22.501 19.7754C26.4991 19.7754 29.752 16.5226 29.752 12.5244ZM16.5684 12.5244C16.5684 9.25312 19.2297 6.5918 22.501 6.5918C25.7723 6.5918 28.4336 9.25312 28.4336 12.5244C28.4336 15.7957 25.7723 18.457 22.501 18.457C19.2297 18.457 16.5684 15.7957 16.5684 12.5244Z" fill="#1A1B13"/>
<path d="M27.1152 12.5244C27.1152 9.98016 25.0452 7.91016 22.501 7.91016C19.9567 7.91016 17.8867 9.98016 17.8867 12.5244C17.8867 15.0687 19.9567 17.1387 22.501 17.1387C25.0452 17.1387 27.1152 15.0687 27.1152 12.5244ZM19.2051 12.5244C19.2051 10.707 20.6836 9.22852 22.501 9.22852C24.3184 9.22852 25.7969 10.707 25.7969 12.5244C25.7969 14.3418 24.3184 15.8203 22.501 15.8203C20.6836 15.8203 19.2051 14.3418 19.2051 12.5244Z" fill="#1A1B13"/>
</g>
<defs>
<clipPath id="clip0_150_68">
<rect width="45" height="45" fill="white"/>
</clipPath>
</defs>
</svg>
