<svg width="45" height="45" viewBox="0 0 45 45" fill="none" xmlns="http://www.w3.org/2000/svg">
<g clip-path="url(#clip0_150_54)">
<path d="M23.4294 25.4923C21.7483 25.4845 20.078 25.2211 18.4761 24.7111C15.9164 23.8548 14.0153 21.6879 13.4992 19.0386C12.9345 16.3187 13.9636 13.4428 16.322 11.1486C16.575 10.9021 16.838 10.6661 17.1108 10.4404C19.5256 8.41877 22.7811 7.71622 25.8146 8.56206C28.7514 9.49942 30.7807 12.1833 30.8822 15.2644C30.9921 17.038 30.4141 18.7857 29.2683 20.1439C28.3845 21.2571 26.9527 21.7829 25.5585 21.5062C24.9884 21.3879 24.4909 21.0426 24.1807 20.5498C23.9024 20.0711 23.831 19.4997 23.983 18.9673C24.6389 16.4881 25.3057 12.7204 25.3123 12.6823C25.3589 12.4183 25.5427 12.1993 25.7946 12.1077C26.0465 12.0161 26.3281 12.0658 26.5334 12.2381C26.7386 12.4104 26.8364 12.6791 26.7898 12.943C26.762 13.0998 26.1054 16.8109 25.4334 19.3507C25.3854 19.4914 25.3974 19.6457 25.4667 19.7773C25.5704 19.9208 25.7268 20.0172 25.9017 20.0453C26.7551 20.1878 27.6172 19.8454 28.1403 19.1562C29.0301 18.0917 29.476 16.7255 29.3853 15.341C29.312 12.8885 27.7037 10.7473 25.3688 9.99351C22.8201 9.29248 20.0896 9.89136 18.0682 11.5948C17.8272 11.7948 17.5929 12.0042 17.368 12.2232C16.2021 13.3573 14.3402 15.7107 14.9676 18.7332C15.3891 20.8448 16.8972 22.5753 18.9314 23.2816C22.4489 24.4036 27.5033 24.5387 30.1664 21.2275C30.428 20.9124 30.8941 20.8654 31.2133 21.122C31.5325 21.3786 31.5868 21.8439 31.3353 22.1671C29.3661 24.6161 26.3694 25.4923 23.4294 25.4923Z" fill="#1A1B13"/>
<path d="M20.8605 21.604C20.0678 21.6176 19.2945 21.3577 18.671 20.8679C17.2314 19.7158 17.1918 17.7144 17.5954 16.3514C17.7313 15.8975 17.9138 15.4589 18.14 15.0425C18.7027 13.9071 19.6025 12.9733 20.7163 12.3689C22.1033 11.6492 23.798 11.9221 24.8889 13.0409C25.4301 13.634 25.8378 14.3363 26.0844 15.1004C26.215 15.4882 26.0107 15.9091 25.6252 16.0464C25.2398 16.1837 24.8154 15.9866 24.6715 15.6036C24.4937 15.0391 24.1981 14.5187 23.8044 14.0768C23.1683 13.4264 22.1773 13.2784 21.379 13.7147C20.5437 14.1857 19.8725 14.9009 19.4553 15.7643C19.2799 16.0878 19.1383 16.4285 19.0326 16.781C18.7412 17.7668 18.8052 19.0535 19.6095 19.6975C20.4887 20.4035 21.972 20.105 22.8065 19.3851C23.4284 18.8252 23.9628 18.1752 24.3918 17.4566C24.5307 17.2239 24.7844 17.0842 25.0554 17.0913C25.3263 17.0983 25.5724 17.2511 25.699 17.4908C25.8256 17.7305 25.813 18.0198 25.666 18.2476C25.1579 19.0942 24.5253 19.8596 23.7895 20.5181C22.9694 21.21 21.9335 21.5941 20.8605 21.604Z" fill="#1A1B13"/>
<path d="M42.75 45H2.25C1.00792 44.9986 0.00136403 43.9921 0 42.75V15C1.179e-05 14.7092 0.168163 14.4445 0.431462 14.321C0.694762 14.1975 1.00574 14.2373 1.2294 14.4232L19.6322 29.7176C21.2974 31.0928 23.7043 31.0923 25.3689 29.7166L43.77 14.4232C43.9936 14.237 44.3049 14.1969 44.5684 14.3205C44.8319 14.444 45.0002 14.7089 45 15V42.75C44.9986 43.9921 43.9921 44.9986 42.75 45ZM1.5 16.5985V42.75C1.50054 43.164 1.83601 43.4995 2.25 43.5H42.75C43.1641 43.4996 43.4996 43.1641 43.5 42.75V16.5985L26.3266 30.871C24.1061 32.706 20.8956 32.7065 18.6746 30.8721L1.5 16.5985Z" fill="#1A1B13"/>
<path d="M0.750734 15.75C0.424057 15.7503 0.134763 15.5392 0.0355086 15.2279C-0.0637457 14.9167 0.0498726 14.577 0.316409 14.3881L7.06641 9.60312C7.40436 9.3689 7.86788 9.45045 8.1056 9.78595C8.34331 10.1214 8.26657 10.5858 7.93356 10.827L1.18356 15.612C1.05717 15.7019 0.905862 15.7502 0.750734 15.75Z" fill="#1A1B13"/>
<path d="M44.2508 15.75C44.0956 15.7502 43.9443 15.7019 43.8179 15.612L37.0679 10.827C36.7349 10.5858 36.6582 10.1214 36.8959 9.78595C37.1336 9.45045 37.5971 9.3689 37.9351 9.60312L44.6851 14.3881C44.9516 14.577 45.0652 14.9167 44.966 15.2279C44.8667 15.5392 44.5774 15.7503 44.2508 15.75Z" fill="#1A1B13"/>
<path d="M29.4297 5.25C29.2744 5.25008 29.123 5.20182 28.9964 5.11192L25.4114 2.56942C23.7472 1.16316 21.3154 1.14851 19.6344 2.53462L16.0044 5.112C15.7858 5.26703 15.5011 5.29366 15.2575 5.18185C15.014 5.07003 14.8485 4.83677 14.8236 4.56992C14.7986 4.30307 14.9179 4.04318 15.1365 3.88815L18.7215 1.34565C20.9368 -0.465628 24.1254 -0.451221 26.3241 1.38L29.8641 3.88785C30.1309 4.07668 30.2447 4.41653 30.1454 4.72791C30.046 5.03929 29.7565 5.2505 29.4297 5.25Z" fill="#1A1B13"/>
<path d="M1.23897 44.5951C0.9229 44.5954 0.640577 44.3975 0.533052 44.1002C0.425527 43.803 0.515881 43.4703 0.758974 43.2683L17.874 29.0483C18.0796 28.8734 18.3634 28.8225 18.617 28.9151C18.8706 29.0077 19.0549 29.2294 19.0995 29.4956C19.1441 29.7619 19.0422 30.0316 18.8327 30.2018L1.7177 44.4218C1.58332 44.5338 1.41392 44.5951 1.23897 44.5951Z" fill="#1A1B13"/>
<path d="M43.761 44.595C43.5862 44.5951 43.4169 44.5338 43.2828 44.4218L26.1678 30.2018C25.9582 30.0316 25.8563 29.7619 25.901 29.4956C25.9456 29.2294 26.1299 29.0077 26.3835 28.9151C26.6371 28.8225 26.9208 28.8734 27.1265 29.0483L44.241 43.2683C44.4841 43.4703 44.5745 43.803 44.467 44.1002C44.3594 44.3975 44.0771 44.5953 43.761 44.595Z" fill="#1A1B13"/>
<path d="M37.5 21.36C37.0858 21.36 36.75 21.0242 36.75 20.61V5.25586C36.7478 5.27161 36.7178 5.25038 36.6675 5.25001H8.3325C8.29935 5.24797 8.26681 5.25963 8.2425 5.28226L8.25 20.61C8.25 21.0242 7.91421 21.36 7.5 21.36C7.08579 21.36 6.75 21.0242 6.75 20.61V5.25001C6.7742 4.39943 7.48185 3.72867 8.3325 3.75001H36.6675C37.5181 3.72875 38.2257 4.39947 38.25 5.25001V20.61C38.25 21.0242 37.9142 21.36 37.5 21.36Z" fill="#1A1B13"/>
</g>
<defs>
<clipPath id="clip0_150_54">
<rect width="45" height="45" fill="white"/>
</clipPath>
</defs>
</svg>
