<svg width="192" height="45" viewBox="0 0 192 45" fill="none" xmlns="http://www.w3.org/2000/svg">
<path d="M191.994 3.11343C192.056 2.56471 191.662 2.0691 191.113 2.00645L182.172 0.985584C181.623 0.922938 181.127 1.31698 181.065 1.8657C181.002 2.41442 181.396 2.91003 181.945 2.97268L189.893 3.88012L188.986 11.8285C188.923 12.3772 189.317 12.8728 189.866 12.9355C190.414 12.9981 190.91 12.6041 190.973 12.0553L191.994 3.11343ZM0.401625 3.80122C1.70768 4.77662 3.00577 5.73457 4.29615 6.67507L5.47416 5.05881C4.19023 4.12301 2.89838 3.16967 1.59838 2.19878L0.401625 3.80122ZM12.1228 12.2296C14.8123 14.085 17.4691 15.8611 20.0957 17.5581L21.181 15.8783C18.5724 14.1928 15.9323 12.4279 13.2585 10.5833L12.1228 12.2296ZM28.2685 22.6398C31.091 24.324 33.8801 25.9126 36.6392 27.4058L37.5911 25.6469C34.858 24.1677 32.0932 22.593 29.2933 20.9223L28.2685 22.6398ZM45.1963 31.7759C48.1648 33.1987 51.1012 34.5064 54.0098 35.6991L54.7686 33.8487C51.8976 32.6713 48.9964 31.3794 46.0607 29.9724L45.1963 31.7759ZM63.0379 39.0606C66.1548 40.1007 69.244 41.004 72.311 41.7707L72.7961 39.8304C69.7811 39.0767 66.7413 38.188 63.6709 37.1634L63.0379 39.0606ZM81.765 43.7116C84.9857 44.2266 88.1873 44.5871 91.3764 44.7932L91.5055 42.7974C88.3802 42.5954 85.241 42.242 82.0809 41.7367L81.765 43.7116ZM101.046 44.9449C104.263 44.837 107.473 44.5707 110.683 44.1466L110.421 42.1638C107.275 42.5795 104.13 42.8404 100.979 42.9461L101.046 44.9449ZM120.201 42.4291C123.295 41.722 126.395 40.8696 129.507 39.8729L128.897 37.9682C125.837 38.9483 122.792 39.7854 119.755 40.4793L120.201 42.4291ZM138.584 36.5726C141.5 35.3882 144.432 34.08 147.383 32.6487L146.511 30.8491C143.596 32.2623 140.705 33.5525 137.832 34.7196L138.584 36.5726ZM155.933 28.1933C158.672 26.6697 161.431 25.0436 164.215 23.3155L163.161 21.6161C160.402 23.3285 157.67 24.9384 154.961 26.4457L155.933 28.1933ZM172.296 18.0647C174.889 16.3064 177.506 14.4631 180.15 12.5351L178.972 10.9191C176.345 12.8345 173.747 14.6646 171.174 16.4094L172.296 18.0647ZM187.818 6.76845C189.079 5.79166 190.347 4.79642 191.622 3.78275L190.378 2.21725C189.109 3.22575 187.848 4.2157 186.593 5.18709L187.818 6.76845Z" fill="white" fill-opacity="0.8"/>
</svg>
