<svg width="40" height="41" viewBox="0 0 40 41" fill="none" xmlns="http://www.w3.org/2000/svg">
<g clip-path="url(#clip0_222_142)">
<path d="M38 24.3543H27.3333C26.2288 24.3543 25.3333 25.2497 25.3333 26.3543V29.6876H23.2667C22.997 28.3795 21.9748 27.3573 20.6667 27.0876V22.3543H28.6667C31.7749 22.3552 34.3685 19.9806 34.6412 16.8843C34.9139 13.788 32.7753 10.9967 29.7147 10.4543C29.9034 9.77024 29.9994 9.06392 30 8.35429C29.9913 4.29664 26.9463 0.888119 22.9153 0.423905C18.8842 -0.0403087 15.1441 2.58683 14.2133 6.53629C12.9046 6.14309 11.487 6.3942 10.393 7.21301C9.29895 8.03181 8.65836 9.32116 8.66667 10.6876C8.66667 10.7863 8.66667 10.8823 8.67533 10.9763C6.6192 11.9764 5.31955 14.0679 5.33333 16.3543C5.33701 19.6665 8.02115 22.3506 11.3333 22.3543H19.3333V27.0876C18.0252 27.3573 17.003 28.3795 16.7333 29.6876H14.6667V26.3543C14.6667 25.2497 13.7712 24.3543 12.6667 24.3543H2C0.895431 24.3543 0 25.2497 0 26.3543V35.6876C0 36.7922 0.895431 37.6876 2 37.6876H4.11133L3.55533 39.021H2.66667C2.29848 39.021 2 39.3194 2 39.6876C2 40.0558 2.29848 40.3543 2.66667 40.3543H12C12.3682 40.3543 12.6667 40.0558 12.6667 39.6876C12.6667 39.3194 12.3682 39.021 12 39.021H11.1113L10.5553 37.6876H12.6667C13.7712 37.6876 14.6667 36.7922 14.6667 35.6876V31.021H16.7333C17.0488 32.5745 18.4147 33.691 20 33.691C21.5853 33.691 22.9512 32.5745 23.2667 31.021H25.3333V35.6876C25.3333 36.7922 26.2288 37.6876 27.3333 37.6876H29.4447L28.8887 39.021H28C27.6318 39.021 27.3333 39.3194 27.3333 39.6876C27.3333 40.0558 27.6318 40.3543 28 40.3543H37.3333C37.7015 40.3543 38 40.0558 38 39.6876C38 39.3194 37.7015 39.021 37.3333 39.021H36.4447L35.8887 37.6876H38C39.1046 37.6876 40 36.7922 40 35.6876V26.3543C40 25.2497 39.1046 24.3543 38 24.3543ZM6.66667 16.3543C6.65428 14.4278 7.83919 12.696 9.63933 12.0096C9.94303 11.8925 10.1178 11.5732 10.0527 11.2543C10.0161 11.0677 9.99849 10.8778 10 10.6876C10.0018 9.03153 11.3439 7.68946 13 7.68763C13.3524 7.68774 13.7019 7.75096 14.032 7.87429C14.0213 8.03429 14 8.19229 14 8.35429C13.9996 8.62777 14.0141 8.90106 14.0433 9.17296C14.0829 9.53913 14.4118 9.80387 14.778 9.76429C15.1442 9.72471 15.4089 9.39579 15.3693 9.02963C15.3452 8.80532 15.3332 8.57989 15.3333 8.35429C15.3332 8.0798 15.3517 7.80561 15.3887 7.53363C15.6984 4.96525 17.466 2.80793 19.9233 1.99919C22.3806 1.19045 25.0839 1.87634 26.8584 3.75877C28.6329 5.6412 29.1582 8.38028 28.206 10.7856C27.9826 11.3571 27.6823 11.8954 27.3133 12.3856C27.0924 12.6802 27.1521 13.098 27.4467 13.319C27.7412 13.5399 28.1591 13.4802 28.38 13.1856C28.715 12.7299 29.001 12.24 29.2333 11.7243C31.6746 12.032 33.4575 14.1823 33.3078 16.6382C33.1581 19.0942 31.1272 21.012 28.6667 21.021H11.3333C8.75722 21.018 6.66961 18.9304 6.66667 16.3543ZM2 25.6876H12.6667C13.0349 25.6876 13.3333 25.9861 13.3333 26.3543V33.6876H1.33333V26.3543C1.33333 25.9861 1.63181 25.6876 2 25.6876ZM9.66667 39.021H5L5.556 37.6876H9.11067L9.66667 39.021ZM12.6667 36.3543H2C1.63181 36.3543 1.33333 36.0558 1.33333 35.6876V35.021H13.3333V35.6876C13.3333 36.0558 13.0349 36.3543 12.6667 36.3543ZM20 32.3543C18.8954 32.3543 18 31.4589 18 30.3543C18 29.2497 18.8954 28.3543 20 28.3543C21.1046 28.3543 22 29.2497 22 30.3543C22 31.4589 21.1046 32.3543 20 32.3543ZM26.6667 26.3543C26.6667 25.9861 26.9651 25.6876 27.3333 25.6876H38C38.3682 25.6876 38.6667 25.9861 38.6667 26.3543V33.6876H26.6667V26.3543ZM35 39.021H30.3333L30.8893 37.6876H34.444L35 39.021ZM38 36.3543H27.3333C26.9651 36.3543 26.6667 36.0558 26.6667 35.6876V35.021H38.6667V35.6876C38.6667 36.0558 38.3682 36.3543 38 36.3543Z" fill="#E1FE6E"/>
</g>
<defs>
<clipPath id="clip0_222_142">
<rect width="40" height="40" fill="white" transform="translate(0 0.354248)"/>
</clipPath>
</defs>
</svg>
