<svg width="65" height="59" viewBox="0 0 65 59" fill="none" xmlns="http://www.w3.org/2000/svg">
<path d="M17.2661 29.4998C12.2264 29.4998 8.12598 25.3994 8.12598 20.3597C8.12598 15.3202 12.2264 11.2197 17.2661 11.2197C22.3056 11.2197 26.4061 15.3202 26.4061 20.3597C26.4061 25.3994 22.3056 29.4998 17.2661 29.4998ZM17.2661 12.2352C12.7863 12.2352 9.1416 15.88 9.1416 20.3597C9.1416 24.8395 12.7863 28.4842 17.2661 28.4842C21.7459 28.4842 25.3906 24.8395 25.3906 20.3597C25.3906 15.88 21.7459 12.2352 17.2661 12.2352Z" fill="#E1FE6E"/>
<path d="M17.2661 31.5311C12.2264 31.5311 8.12598 27.4306 8.12598 22.391C8.12598 22.1104 8.3531 21.8833 8.63379 21.8833C8.91448 21.8833 9.1416 22.1104 9.1416 22.391C9.1416 26.8708 12.7863 30.5156 17.2661 30.5156C21.7459 30.5156 25.3906 26.8708 25.3906 22.391C25.3906 22.3243 25.4037 22.2583 25.4292 22.1966C25.4547 22.135 25.4921 22.079 25.5393 22.0319C25.5864 21.9847 25.6424 21.9473 25.704 21.9218C25.7657 21.8963 25.8317 21.8833 25.8984 21.8833C25.9651 21.8833 26.0311 21.8964 26.0927 21.9219C26.1543 21.9474 26.2103 21.9848 26.2575 22.0319C26.3046 22.0791 26.342 22.1351 26.3675 22.1967C26.393 22.2583 26.4061 22.3243 26.4061 22.391C26.4061 27.4306 22.3056 31.5311 17.2661 31.5311Z" fill="#E1FE6E"/>
<path d="M8.63379 22.8988C8.3531 22.8988 8.12598 22.6717 8.12598 22.391V20.3599C8.12598 20.0793 8.3531 19.8522 8.63379 19.8522C8.91448 19.8522 9.1416 20.0793 9.1416 20.3599V22.391C9.1416 22.6717 8.91448 22.8988 8.63379 22.8988ZM25.8984 22.8988C25.6177 22.8988 25.3906 22.6717 25.3906 22.391V20.3599C25.3906 20.2932 25.4037 20.2271 25.4292 20.1655C25.4547 20.1039 25.4921 20.0479 25.5393 20.0007C25.5864 19.9536 25.6424 19.9162 25.704 19.8907C25.7657 19.8652 25.8317 19.8521 25.8984 19.8522C25.9651 19.8521 26.0311 19.8652 26.0927 19.8907C26.1543 19.9162 26.2103 19.9536 26.2575 20.0008C26.3046 20.0479 26.342 20.1039 26.3675 20.1655C26.393 20.2271 26.4061 20.2932 26.4061 20.3599V22.391C26.4061 22.6717 26.179 22.8988 25.8984 22.8988ZM17.2661 24.4221C15.0261 24.4221 13.2038 22.5998 13.2038 20.3599C13.2038 18.1199 15.0261 16.2976 17.2661 16.2976C19.5061 16.2976 21.3283 18.1199 21.3283 20.3599C21.3283 22.5998 19.5059 24.4221 17.2661 24.4221ZM17.2661 17.3132C15.5861 17.3132 14.2193 18.6799 14.2193 20.3599C14.2193 22.04 15.5861 23.4066 17.2661 23.4066C18.9461 23.4066 20.3127 22.04 20.3127 20.3599C20.3127 18.6799 18.9461 17.3132 17.2661 17.3132Z" fill="#E1FE6E"/>
<path d="M20.674 21.8833C20.5646 21.8832 20.4581 21.8479 20.3703 21.7825C20.2826 21.7171 20.2183 21.6252 20.187 21.5203C19.8063 20.2388 18.6052 19.3443 17.2663 19.3443C15.9275 19.3443 14.7264 20.2388 14.3455 21.5203C14.3266 21.5843 14.2952 21.6439 14.2532 21.6957C14.2111 21.7476 14.1593 21.7906 14.1006 21.8224C14.0419 21.8542 13.9776 21.8741 13.9112 21.8809C13.8448 21.8878 13.7777 21.8815 13.7138 21.8624C13.5847 21.8239 13.4762 21.7357 13.412 21.6173C13.3479 21.4988 13.3334 21.3597 13.3716 21.2306C13.88 19.5223 15.4811 18.3287 17.2663 18.3287C19.0515 18.3287 20.6527 19.5223 21.161 21.2306C21.1993 21.3597 21.1847 21.4988 21.1206 21.6173C21.0564 21.7357 20.9479 21.8239 20.8188 21.8624C20.7718 21.876 20.723 21.883 20.674 21.8833ZM14.7224 18.3237C14.6557 18.3238 14.5897 18.3107 14.5281 18.2852C14.4665 18.2596 14.4105 18.2222 14.3634 18.175L10.804 14.6156C10.7122 14.5197 10.6617 14.3916 10.6631 14.2589C10.6646 14.1261 10.718 13.9992 10.8119 13.9054C10.9057 13.8115 11.0326 13.7581 11.1654 13.7567C11.2981 13.7552 11.4262 13.8058 11.5221 13.8976L15.0815 17.457C15.1525 17.528 15.2009 17.6185 15.2206 17.717C15.2402 17.8155 15.2302 17.9176 15.1917 18.0104C15.1533 18.1032 15.0882 18.1825 15.0046 18.2383C14.9211 18.2941 14.8229 18.3238 14.7224 18.3237ZM17.2663 29.4999C16.9856 29.4999 16.7585 29.2728 16.7585 28.9921V23.9144C16.7585 23.6337 16.9856 23.4066 17.2663 23.4066C17.547 23.4066 17.7741 23.6337 17.7741 23.9144V28.9921C17.7741 29.2728 17.547 29.4999 17.2663 29.4999ZM33.5153 3.09533H31.4842C31.2035 3.09533 30.9764 2.86821 30.9764 2.58752V0.556396C30.9764 0.275703 31.2035 0.048584 31.4842 0.048584H33.5153C33.796 0.048584 34.0231 0.275703 34.0231 0.556396V2.58752C34.0231 2.86821 33.796 3.09533 33.5153 3.09533ZM31.992 2.07971H33.0075V1.06421H31.992V2.07971Z" fill="#E1FE6E"/>
<path d="M62.4592 45.7488H2.54102C2.26032 45.7488 2.0332 45.5217 2.0332 45.241V6.64966C2.0332 6.36896 2.26032 6.14185 2.54102 6.14185H62.4593C62.74 6.14185 62.9671 6.36896 62.9671 6.64966V45.241C62.9671 45.3077 62.954 45.3737 62.9285 45.4354C62.903 45.497 62.8655 45.553 62.8184 45.6001C62.7712 45.6473 62.7152 45.6847 62.6536 45.7102C62.5919 45.7357 62.5259 45.7488 62.4592 45.7488ZM3.04883 44.7332H61.9515V7.15747H3.04883V44.7332Z" fill="#E1FE6E"/>
<path d="M64.4902 7.15746H0.509766C0.229072 7.15746 0.00195312 6.93034 0.00195312 6.64965V2.5874C0.00195312 2.30671 0.229072 2.07959 0.509766 2.07959H64.4903C64.557 2.07956 64.6231 2.09267 64.6847 2.11818C64.7463 2.14369 64.8023 2.18109 64.8494 2.22826C64.8966 2.27542 64.934 2.33142 64.9595 2.39304C64.985 2.45467 64.9981 2.52071 64.998 2.5874V6.64965C64.998 6.71634 64.9849 6.78238 64.9594 6.844C64.9339 6.90562 64.8965 6.96161 64.8493 7.00876C64.8022 7.05592 64.7462 7.09333 64.6846 7.11884C64.6229 7.14435 64.5569 7.15748 64.4902 7.15746ZM1.01758 6.14184H63.9825V3.09521H1.01758V6.14184Z" fill="#E1FE6E"/>
<path d="M61.4436 5.12646H3.55664C3.27595 5.12646 3.04883 4.89935 3.04883 4.61865C3.04883 4.33796 3.27595 4.11084 3.55664 4.11084H61.4437C61.7244 4.11084 61.9515 4.33796 61.9515 4.61865C61.9515 4.89935 61.7243 5.12646 61.4436 5.12646ZM46.2102 58.9513C46.1314 58.9511 46.0537 58.9328 45.9831 58.8977L32.2729 52.0426C32.0221 51.9177 31.9205 51.6121 32.0459 51.3613C32.1714 51.1104 32.4768 51.0102 32.7272 51.1342L46.4373 57.9892C46.5139 57.9893 46.5896 58.0066 46.6585 58.04C46.7274 58.0733 46.7879 58.1219 46.8355 58.1819C46.883 58.242 46.9163 58.3121 46.933 58.3868C46.9496 58.4616 46.9491 58.5392 46.9315 58.6137C46.9139 58.6883 46.8796 58.7579 46.8313 58.8173C46.783 58.8768 46.7219 58.9245 46.6525 58.957C46.5831 58.9895 46.5073 59.0058 46.4307 59.0048C46.3541 59.0038 46.2787 58.9855 46.2102 58.9513ZM50.2725 58.9513C50.1937 58.9511 50.1159 58.9328 50.0453 58.8977L32.2729 50.0115C32.0221 49.8866 31.9205 49.581 32.0459 49.3301C32.1714 49.0793 32.4768 48.9781 32.7272 49.103L50.4996 57.9892C50.5762 57.9893 50.6518 58.0066 50.7207 58.04C50.7897 58.0733 50.8502 58.1219 50.8977 58.1819C50.9453 58.242 50.9786 58.3121 50.9952 58.3868C51.0118 58.4616 51.0113 58.5392 50.9937 58.6137C50.9761 58.6883 50.9419 58.7579 50.8936 58.8173C50.8453 58.8768 50.7841 58.9245 50.7148 58.957C50.6454 58.9895 50.5696 59.0058 50.493 59.0048C50.4164 59.0038 50.341 58.9855 50.2725 58.9513Z" fill="#E1FE6E"/>
<path d="M50.2724 58.9513H46.2102C45.9295 58.9513 45.7023 58.7242 45.7023 58.4435C45.7023 58.1628 45.9295 57.9357 46.2102 57.9357H50.2724C50.5531 57.9357 50.7802 58.1628 50.7802 58.4435C50.7802 58.7242 50.5531 58.9513 50.2724 58.9513ZM18.7904 58.9513C18.6961 58.9513 18.6035 58.9251 18.5232 58.8755C18.4429 58.8259 18.378 58.755 18.3357 58.6706C18.3058 58.611 18.288 58.546 18.2833 58.4795C18.2785 58.413 18.2869 58.3462 18.308 58.2829C18.3291 58.2196 18.3625 58.1611 18.4062 58.1107C18.4499 58.0603 18.5031 58.0191 18.5628 57.9893L32.2729 51.1342C32.3934 51.0743 32.5327 51.0645 32.6604 51.1071C32.7881 51.1497 32.8937 51.2411 32.9542 51.3613C32.9841 51.4209 33.0019 51.4859 33.0066 51.5524C33.0114 51.619 33.003 51.6858 32.9819 51.7491C32.9608 51.8123 32.9274 51.8708 32.8837 51.9212C32.84 51.9716 32.7868 52.0129 32.7271 52.0427L19.017 58.8977C18.9466 58.9327 18.8691 58.951 18.7904 58.9513ZM14.7282 58.9513C14.6338 58.9513 14.5413 58.9251 14.461 58.8755C14.3807 58.8259 14.3157 58.755 14.2734 58.6706C14.2436 58.611 14.2258 58.546 14.221 58.4795C14.2163 58.413 14.2247 58.3462 14.2458 58.2829C14.2669 58.2196 14.3002 58.1611 14.3439 58.1107C14.3877 58.0603 14.4409 58.0191 14.5006 57.9893L32.2729 49.1031C32.3933 49.0429 32.5328 49.0331 32.6605 49.0756C32.7883 49.1182 32.8939 49.2098 32.9542 49.3302C32.9841 49.3898 33.0019 49.4548 33.0066 49.5213C33.0114 49.5878 33.003 49.6547 32.9819 49.7179C32.9608 49.7812 32.9274 49.8397 32.8837 49.8901C32.84 49.9405 32.7868 49.9817 32.7271 50.0115L14.9548 58.8977C14.8844 58.9327 14.8068 58.951 14.7282 58.9513Z" fill="#E1FE6E"/>
<path d="M18.7898 58.9514H14.7275C14.4468 58.9514 14.2197 58.7243 14.2197 58.4436C14.2197 58.1629 14.4468 57.9358 14.7275 57.9358H18.7898C19.0705 57.9358 19.2976 58.1629 19.2976 58.4436C19.2976 58.7243 19.0705 58.9514 18.7898 58.9514ZM31.4843 50.573C31.2036 50.573 30.9765 50.3459 30.9765 50.0652V45.2412C30.9765 44.9605 31.2036 44.7334 31.4843 44.7334C31.765 44.7334 31.9921 44.9605 31.9921 45.2412V50.0652C31.9921 50.3459 31.765 50.573 31.4843 50.573ZM33.5155 50.573C33.2348 50.573 33.0076 50.3459 33.0076 50.0652V45.2412C33.0076 44.9605 33.2348 44.7334 33.5155 44.7334C33.7962 44.7334 34.0233 44.9605 34.0233 45.2412V50.0652C34.0233 50.3459 33.7962 50.573 33.5155 50.573ZM33.5155 58.9514C33.2348 58.9514 33.0076 58.7243 33.0076 58.4436V52.0963C33.0076 51.8156 33.2348 51.5885 33.5155 51.5885C33.7962 51.5885 34.0233 51.8156 34.0233 52.0963V58.4436C34.0233 58.7243 33.7962 58.9514 33.5155 58.9514Z" fill="#E1FE6E"/>
<path d="M33.5155 58.9512H31.4844C31.2037 58.9512 30.9766 58.7241 30.9766 58.4434C30.9766 58.1627 31.2037 57.9355 31.4844 57.9355H33.5155C33.7962 57.9355 34.0233 58.1627 34.0233 58.4434C34.0233 58.7241 33.7962 58.9512 33.5155 58.9512Z" fill="#E1FE6E"/>
<path d="M31.4844 58.9513C31.2037 58.9513 30.9766 58.7242 30.9766 58.4435V52.0962C30.9766 51.8155 31.2037 51.5884 31.4844 51.5884C31.7651 51.5884 31.9922 51.8155 31.9922 52.0962V58.4435C31.9922 58.7242 31.7651 58.9513 31.4844 58.9513ZM32.4999 42.7023C32.4332 42.7023 32.3671 42.6892 32.3055 42.6637C32.2439 42.6382 32.1879 42.6008 32.1408 42.5536C32.0936 42.5065 32.0562 42.4505 32.0307 42.3889C32.0052 42.3272 31.9921 42.2612 31.9922 42.1945V9.69653C31.9922 9.41584 32.2193 9.18872 32.4999 9.18872C32.7806 9.18872 33.0077 9.41584 33.0077 9.69653V42.1945C33.0077 42.4752 32.7806 42.7023 32.4999 42.7023ZM38.0856 30.5156C37.8049 30.5156 37.5777 30.2885 37.5777 30.0078V12.7432C37.5777 12.4625 37.8049 12.2353 38.0856 12.2353C38.3662 12.2353 38.5934 12.4625 38.5934 12.7432V30.0078C38.5934 30.2885 38.3662 30.5156 38.0856 30.5156Z" fill="#E1FE6E"/>
<path d="M57.3815 30.5156H38.0859C37.8052 30.5156 37.5781 30.2885 37.5781 30.0078C37.5781 29.7271 37.8052 29.5 38.0859 29.5H57.3815C57.6622 29.5 57.8894 29.7271 57.8894 30.0078C57.8894 30.2885 57.6622 30.5156 57.3815 30.5156Z" fill="#E1FE6E"/>
<path d="M57.3815 35.5934H38.0859C37.8052 35.5934 37.5781 35.3663 37.5781 35.0856C37.5781 35.0189 37.5912 34.9528 37.6167 34.8912C37.6422 34.8296 37.6796 34.7736 37.7268 34.7265C37.774 34.6793 37.83 34.6419 37.8916 34.6164C37.9532 34.5909 38.0192 34.5778 38.0859 34.5779H57.3815C57.6622 34.5779 57.8894 34.805 57.8894 35.0856C57.8894 35.3663 57.6622 35.5934 57.3815 35.5934Z" fill="#E1FE6E"/>
<path d="M55.3505 37.6245H40.1172C39.8365 37.6245 39.6094 37.3974 39.6094 37.1167C39.6094 36.836 39.8365 36.6089 40.1172 36.6089H55.3505C55.6312 36.6089 55.8584 36.836 55.8584 37.1167C55.8584 37.3974 55.6312 37.6245 55.3505 37.6245Z" fill="#E1FE6E"/>
<path d="M52.3031 39.6556H43.163C43.0963 39.6557 43.0302 39.6426 42.9686 39.617C42.907 39.5915 42.851 39.5541 42.8039 39.507C42.7567 39.4598 42.7193 39.4038 42.6938 39.3422C42.6683 39.2806 42.6552 39.2145 42.6553 39.1478C42.6552 39.0811 42.6683 39.0151 42.6939 38.9535C42.7194 38.8919 42.7567 38.8359 42.8039 38.7888C42.851 38.7416 42.907 38.7042 42.9686 38.6787C43.0302 38.6532 43.0963 38.6401 43.163 38.6401H52.3031C52.3698 38.6401 52.4358 38.6532 52.4974 38.6787C52.559 38.7042 52.615 38.7416 52.6621 38.7888C52.7093 38.8359 52.7467 38.8919 52.7722 38.9535C52.7977 39.0151 52.8108 39.0811 52.8108 39.1478C52.8108 39.4285 52.5836 39.6556 52.3031 39.6556Z" fill="#E1FE6E"/>
<path d="M26.9147 35.5934H7.61914C7.33845 35.5934 7.11133 35.3663 7.11133 35.0856C7.11129 35.0189 7.12441 34.9528 7.14992 34.8912C7.17543 34.8296 7.21283 34.7736 7.26 34.7265C7.30716 34.6793 7.36315 34.6419 7.42478 34.6164C7.4864 34.5909 7.55245 34.5778 7.61914 34.5779H26.9147C27.1954 34.5779 27.4226 34.805 27.4226 35.0856C27.4226 35.3663 27.1954 35.5934 26.9147 35.5934Z" fill="#E1FE6E"/>
<path d="M24.8828 37.6245H9.64941C9.36872 37.6245 9.1416 37.3974 9.1416 37.1167C9.1416 36.836 9.36872 36.6089 9.64941 36.6089H24.8828C25.1635 36.6089 25.3906 36.836 25.3906 37.1167C25.3906 37.3974 25.1635 37.6245 24.8828 37.6245Z" fill="#E1FE6E"/>
<path d="M21.8364 39.6556H12.6963C12.4156 39.6556 12.1885 39.4285 12.1885 39.1478C12.1884 39.0811 12.2016 39.0151 12.2271 38.9535C12.2526 38.8919 12.29 38.8359 12.3371 38.7887C12.3843 38.7416 12.4403 38.7042 12.5019 38.6787C12.5636 38.6532 12.6296 38.6401 12.6963 38.6401H21.8364C21.9031 38.6401 21.9691 38.6532 22.0307 38.6787C22.0923 38.7042 22.1483 38.7416 22.1955 38.7888C22.2426 38.8359 22.28 38.8919 22.3055 38.9535C22.331 39.0151 22.3441 39.0811 22.3441 39.1478C22.3441 39.4285 22.117 39.6556 21.8364 39.6556Z" fill="#E1FE6E"/>
<path d="M40.1163 26.4531C40.0159 26.4532 39.9177 26.4235 39.8341 26.3677C39.7506 26.3119 39.6855 26.2326 39.647 26.1398C39.6086 26.047 39.5986 25.9449 39.6182 25.8464C39.6378 25.7479 39.6862 25.6574 39.7573 25.5864L45.8507 19.493C45.9466 19.4012 46.0746 19.3506 46.2074 19.3521C46.3401 19.3535 46.467 19.4069 46.5609 19.5008C46.6548 19.5946 46.7082 19.7215 46.7096 19.8543C46.7111 19.987 46.6605 20.1151 46.5687 20.211L40.4752 26.3043C40.4282 26.3516 40.3722 26.389 40.3106 26.4146C40.249 26.4401 40.183 26.4532 40.1163 26.4531Z" fill="#E1FE6E"/>
<path d="M49.2565 23.4065C49.1898 23.4066 49.1238 23.3935 49.0622 23.3679C49.0006 23.3424 48.9446 23.3049 48.8975 23.2577L45.8509 20.211C45.7591 20.1151 45.7085 19.987 45.71 19.8543C45.7115 19.7215 45.7648 19.5946 45.8587 19.5008C45.9526 19.4069 46.0795 19.3535 46.2123 19.3521C46.345 19.3506 46.473 19.4012 46.5689 19.493L49.6156 22.5397C49.6866 22.6107 49.7349 22.7012 49.7545 22.7997C49.7741 22.8981 49.764 23.0002 49.7256 23.093C49.6872 23.1858 49.6221 23.2651 49.5386 23.3209C49.4551 23.3767 49.357 23.4065 49.2565 23.4065Z" fill="#E1FE6E"/>
<path d="M49.2567 23.4066C49.1563 23.4066 49.0581 23.3768 48.9747 23.321C48.8912 23.2652 48.8261 23.1859 48.7877 23.0931C48.7492 23.0003 48.7392 22.8983 48.7588 22.7998C48.7784 22.7013 48.8267 22.6108 48.8977 22.5398L57.0222 14.4153C57.069 14.3668 57.1251 14.3281 57.187 14.3015C57.249 14.2749 57.3156 14.2609 57.383 14.2603C57.4505 14.2597 57.5173 14.2725 57.5798 14.2981C57.6422 14.3236 57.6989 14.3613 57.7465 14.409C57.7942 14.4567 57.8319 14.5134 57.8575 14.5758C57.883 14.6382 57.8958 14.7051 57.8953 14.7725C57.8947 14.8399 57.8807 14.9065 57.854 14.9685C57.8274 15.0305 57.7887 15.0865 57.7402 15.1333L49.6158 23.2578C49.5687 23.3051 49.5127 23.3425 49.4511 23.368C49.3895 23.3936 49.3234 23.4067 49.2567 23.4066Z" fill="#E1FE6E"/>
<path d="M57.3809 17.3131C57.1002 17.3131 56.873 17.086 56.873 16.8053V14.7742C56.873 14.4935 57.1002 14.2664 57.3809 14.2664C57.6616 14.2664 57.8887 14.4935 57.8887 14.7742V16.8053C57.8887 17.086 57.6616 17.3131 57.3809 17.3131Z" fill="#E1FE6E"/>
<path d="M57.3816 15.282H55.3505C55.0699 15.282 54.8428 15.0549 54.8428 14.7742C54.8428 14.4935 55.0699 14.2664 55.3505 14.2664H57.3816C57.6623 14.2664 57.8894 14.4935 57.8894 14.7742C57.8894 15.0549 57.6623 15.282 57.3816 15.282Z" fill="#E1FE6E"/>
</svg>
