<svg width="38" height="54" viewBox="0 0 38 54" fill="none" xmlns="http://www.w3.org/2000/svg">
<path d="M18.4141 14.6484C18.4141 14.8038 18.4758 14.9529 18.5857 15.0628C18.6956 15.1726 18.8446 15.2344 19 15.2344C19.1554 15.2344 19.3044 15.1726 19.4143 15.0628C19.5242 14.9529 19.5859 14.8038 19.5859 14.6484C19.5859 14.493 19.5242 14.344 19.4143 14.2341C19.3044 14.1242 19.1554 14.0625 19 14.0625C18.8446 14.0625 18.6956 14.1242 18.5857 14.2341C18.4758 14.344 18.4141 14.493 18.4141 14.6484Z" fill="#1A1B13"/>
<path d="M12.4551 40.623C12.5781 40.582 12.6953 40.541 12.8184 40.5059C12.7012 40.541 12.5781 40.582 12.4551 40.623ZM12.4551 40.623C12.5781 40.582 12.6953 40.541 12.8184 40.5059C12.7012 40.541 12.5781 40.582 12.4551 40.623Z" fill="#1A1B13"/>
<path d="M18.9883 12.0352C20.418 12.0352 21.5781 13.1953 21.5781 14.625C21.5781 16.0547 20.418 17.2148 18.9883 17.2148C17.5586 17.2148 16.3984 16.0547 16.3984 14.625C16.3984 13.1953 17.5645 12.0352 18.9883 12.0352ZM18.9883 10.8633C16.9082 10.8633 15.2266 12.5449 15.2266 14.625C15.2266 16.7051 16.9082 18.3867 18.9883 18.3867C21.0684 18.3867 22.75 16.7051 22.75 14.625C22.75 12.5449 21.0684 10.8633 18.9883 10.8633Z" fill="#1A1B13"/>
<path d="M31.8145 28.0254C31.8379 27.5156 31.8496 27.0059 31.8496 26.4902C31.8496 15.9668 26.8047 6.62109 19 0.738281C11.2012 6.62109 6.15625 15.9668 6.15625 26.4902C6.15625 27.0059 6.16797 27.5156 6.19141 28.0195C2.91016 31.3008 0.882812 35.8301 0.882812 40.834C0.882812 44.4492 1.9375 47.8125 3.75976 50.6367C5.53516 47.7188 8.13672 45.3574 11.2422 43.8809C13.5273 42.791 16.0879 42.1816 18.7891 42.1816C21.6191 42.1816 24.291 42.8496 26.6582 44.0391C29.7344 45.5801 32.3008 48.0059 34.0176 50.9766C35.9746 48.082 37.1172 44.5957 37.1172 40.834C37.1172 35.8301 35.0898 31.3066 31.8145 28.0254ZM9.57227 19.4648C10.1113 17.2441 10.9141 15.0879 11.9512 13.0488C12.9739 11.0392 14.2243 9.15373 15.6777 7.42969C16.6973 6.22266 17.8105 5.0918 19.0059 4.06055C20.2012 5.0918 21.3145 6.22266 22.334 7.42969C23.7871 9.1582 25.041 11.0508 26.0605 13.0488C27.0977 15.0879 27.9004 17.2441 28.4395 19.4648C28.9492 21.5625 29.2305 23.7246 29.2715 25.9043C26.3477 23.8945 22.8086 22.7168 19 22.7168C15.1914 22.7168 11.6582 23.8945 8.74023 25.9043C8.78125 23.7246 9.0625 21.5625 9.57227 19.4648ZM4.26367 45.7852C3.73047 44.2031 3.46094 42.5332 3.46094 40.8398C3.46094 38.7422 3.87109 36.7031 4.67969 34.793C5.17188 33.6328 5.79297 32.543 6.54883 31.541C7.11719 35.1445 8.27734 38.5547 9.93554 41.6543C7.80273 42.6973 5.89258 44.0918 4.26367 45.7852ZM25.6035 40.7871C25.5625 40.7695 25.5156 40.7578 25.4746 40.7402C25.4512 40.7285 25.4219 40.7227 25.3984 40.7109C25.3633 40.6992 25.3223 40.6816 25.2871 40.6699C25.2402 40.6523 25.1992 40.6406 25.1523 40.623C25.1055 40.6055 25.0645 40.5938 25.0176 40.582L24.9648 40.5645C24.9062 40.5469 24.8418 40.5234 24.7832 40.5059C24.7129 40.4824 24.6426 40.4648 24.5781 40.4414L24.4023 40.3887C24.3906 40.3828 24.3789 40.3828 24.3613 40.377C24.2969 40.3594 24.2266 40.3359 24.1621 40.3184C24.0918 40.3008 24.0215 40.2832 23.957 40.2656L23.7461 40.2129L23.5352 40.1602C23.4766 40.1426 23.4121 40.1309 23.3535 40.1191C23.2832 40.1016 23.2129 40.0898 23.1426 40.0723C23.0664 40.0547 22.9961 40.0371 22.9199 40.0254H22.9023C22.8496 40.0137 22.791 40.002 22.7383 39.9902C22.7148 39.9844 22.6973 39.9844 22.6738 39.9785C22.6094 39.9668 22.5449 39.9551 22.4746 39.9434C22.4043 39.9316 22.334 39.9199 22.2637 39.9023L21.9473 39.8496C21.8945 39.8438 21.8359 39.832 21.7832 39.8262C21.7363 39.8203 21.6895 39.8086 21.6367 39.8027C21.4844 39.7793 21.3379 39.7617 21.1855 39.7441C21.1152 39.7383 21.0508 39.7266 20.9805 39.7207H20.957C20.9043 39.7148 20.8516 39.709 20.793 39.7031C20.7285 39.6973 20.6699 39.6914 20.6055 39.6855C20.5059 39.6738 20.4062 39.668 20.3066 39.6621C20.2598 39.6562 20.2188 39.6563 20.1719 39.6504C20.1191 39.6445 20.0605 39.6445 20.0078 39.6387C19.9844 39.6387 19.9609 39.6387 19.9375 39.6328C19.873 39.627 19.8145 39.627 19.75 39.6211C19.7207 39.6211 19.6914 39.6152 19.6621 39.6152C19.5859 39.6094 19.5098 39.6094 19.4336 39.6094C19.3867 39.6094 19.3457 39.6035 19.2988 39.6035C19.2285 39.6035 19.1582 39.6035 19.0937 39.5977H18.2793C18.1445 39.5977 18.0098 39.6035 17.875 39.6094C17.8223 39.6094 17.7637 39.6152 17.7109 39.6152C17.6641 39.6152 17.623 39.6211 17.5762 39.6211C17.4941 39.627 17.4121 39.6328 17.3359 39.6387C17.2539 39.6445 17.1777 39.6504 17.0957 39.6562C17.0137 39.6621 16.9375 39.668 16.8555 39.6797C16.8203 39.6797 16.7852 39.6855 16.75 39.6914L16.293 39.7441C16.2285 39.75 16.1699 39.7617 16.1055 39.7676C16.0469 39.7734 15.9824 39.7852 15.9238 39.791C15.7363 39.8203 15.5488 39.8438 15.3672 39.8789C15.3262 39.8848 15.2852 39.8906 15.2441 39.9023C15.1914 39.9082 15.1445 39.9199 15.0918 39.9316C15.0273 39.9434 14.957 39.9551 14.8926 39.9668C14.8398 39.9785 14.793 39.9844 14.7402 39.9961C14.7168 40.002 14.6934 40.002 14.6758 40.0078C14.6348 40.0137 14.5937 40.0254 14.5527 40.0313C14.4824 40.0488 14.4121 40.0605 14.3418 40.0781C14.2715 40.0957 14.2012 40.1074 14.1309 40.125C14.1191 40.125 14.1074 40.1309 14.0957 40.1309C14.0664 40.1367 14.0371 40.1426 14.0078 40.1543C13.9434 40.1719 13.873 40.1895 13.8027 40.207C13.7266 40.2246 13.6562 40.2422 13.5801 40.2656C13.5566 40.2715 13.5273 40.2773 13.498 40.2891C13.4219 40.3125 13.3398 40.3301 13.2637 40.3535C13.1758 40.377 13.0879 40.4062 12.9941 40.4297C12.9355 40.4473 12.8711 40.4648 12.8125 40.4883C12.6895 40.5234 12.5723 40.5645 12.4492 40.6055C12.4082 40.6172 12.3672 40.6348 12.3262 40.6465C11.4473 39.0352 10.7207 37.3418 10.1582 35.5957C9.47266 33.4805 9.0332 31.2832 8.83984 29.0566C8.80469 28.6641 8.78125 28.2773 8.76367 27.8848C8.75781 27.8145 8.75781 27.7441 8.75781 27.6738C8.75195 27.6035 8.75195 27.5332 8.75195 27.4629C8.75195 27.3926 8.74609 27.3223 8.74609 27.252C8.74609 27.1816 8.74023 27.1113 8.74023 27.0352C9.8418 26.2148 11.0371 25.5234 12.3145 24.9844C14.4297 24.0879 16.6797 23.6367 19 23.6367C21.3203 23.6367 23.5703 24.0938 25.6855 24.9844C26.9629 25.5234 28.1582 26.209 29.2598 27.0352V27.041C29.2598 27.0996 29.2598 27.1523 29.2539 27.2109C29.2539 27.293 29.248 27.375 29.248 27.4629C29.248 27.5039 29.248 27.5391 29.2422 27.5801C29.2363 27.6855 29.2363 27.7852 29.2305 27.8906C29.2129 28.2832 29.1836 28.6699 29.1543 29.0625C28.9609 31.3184 28.5098 33.5449 27.8066 35.6836C27.2383 37.459 26.5 39.1641 25.6035 40.7871ZM33.6191 46.1133C32.0078 44.3599 30.0971 42.9076 27.9766 41.8242C29.6816 38.6777 30.877 35.2148 31.457 31.541C32.207 32.543 32.8281 33.627 33.3203 34.793C34.1289 36.709 34.5391 38.7422 34.5391 40.8398C34.5391 42.6562 34.2285 44.4316 33.6191 46.1133Z" fill="#1A1B13"/>
<path d="M19 45.0059C19.5098 45.0059 20.4473 46.3477 20.4473 48.5449C20.4473 50.7422 19.5098 52.084 19 52.084C18.4902 52.084 17.5527 50.7422 17.5527 48.5449C17.5527 46.3477 18.4902 45.0059 19 45.0059ZM19 43.834C17.5527 43.834 16.3809 45.9434 16.3809 48.5449C16.3809 51.1465 17.5527 53.2559 19 53.2559C20.4473 53.2559 21.6191 51.1465 21.6191 48.5449C21.6191 45.9434 20.4473 43.834 19 43.834Z" fill="#1A1B13"/>
</svg>
