<svg width="44" height="41" viewBox="0 0 44 41" fill="none" xmlns="http://www.w3.org/2000/svg">
<path d="M19.7663 20.6208C19.378 20.6208 19.0645 20.9343 19.0645 21.3226C19.0645 23.0255 17.6797 24.4103 15.9767 24.4103H15.1253C13.4223 24.4103 12.0375 23.0255 12.0375 21.3226V17.8512C12.0375 14.0523 8.94506 10.9598 5.14617 10.9598H3.4713C3.08299 10.9598 2.76953 11.2733 2.76953 11.6616C2.76953 12.0499 3.08299 12.3634 3.4713 12.3634H5.14617C8.17312 12.3634 10.634 14.8242 10.634 17.8512V21.3226C10.634 23.7975 12.6504 25.8139 15.1253 25.8139H15.9767C18.4516 25.8139 20.468 23.7975 20.468 21.3226C20.468 20.9343 20.1546 20.6208 19.7663 20.6208Z" fill="#E1FE6E"/>
<path d="M41.5491 0.957182C40.7444 0.152492 39.4251 0.152492 38.6111 0.961861L35.7479 3.82974H3.40122C1.52517 3.82974 0 5.35491 0 7.23096V29.9494C0 31.8255 1.52517 33.3506 3.40122 33.3506H16.557C16.5429 33.4863 16.5289 33.636 16.5008 33.8044C16.3184 35.0162 15.7429 36.9483 13.9183 38.2536C13.5207 38.5343 13.0669 38.7917 12.5475 38.9975C12.3932 39.0583 12.2668 39.1753 12.192 39.3156C12.1171 39.456 12.0844 39.6197 12.1171 39.7882C12.1826 40.1203 12.468 40.3542 12.8049 40.3542H20.3231H27.8413C28.1782 40.3542 28.4682 40.1156 28.5291 39.7882C28.5618 39.6244 28.5337 39.456 28.4542 39.3156C28.3794 39.1753 28.2577 39.063 28.0987 38.9975C27.5793 38.787 27.1209 38.5343 26.7279 38.2536C24.9033 36.9483 24.3232 35.0208 24.1454 33.8044C24.122 33.636 24.1033 33.4863 24.0892 33.3506H37.245C39.121 33.3506 40.6462 31.8255 40.6462 29.9494V7.6988L42.9948 5.35023C43.3878 4.95724 43.6077 4.43326 43.603 3.87184C43.603 3.31511 43.3831 2.7958 42.9948 2.4075L41.5491 0.957182ZM23.467 18.9925L24.9688 20.4943L23.1255 20.8312L23.467 18.9925ZM22.6951 33.346C22.7185 33.5939 22.7559 33.8933 22.8167 34.2302C23.06 35.5682 23.6962 37.4817 25.3571 38.9414H20.3231H15.2938C16.9546 37.4817 17.5909 35.5729 17.8342 34.2302C17.895 33.8933 17.9324 33.5939 17.9558 33.346H22.6951ZM39.2474 29.9447C39.2474 31.0442 38.3491 31.9424 37.2497 31.9424H23.4015H23.3968H3.40122C2.30179 31.9424 1.40353 31.0442 1.40353 29.9447V7.22628C1.40353 6.12685 2.30179 5.22859 3.40122 5.22859H34.3444L22.5313 17.0463C22.5266 17.051 22.5266 17.051 22.522 17.051C22.5126 17.0603 22.5079 17.0791 22.4939 17.0884C22.4518 17.1399 22.4144 17.1913 22.3863 17.2522C22.3723 17.2849 22.3629 17.3177 22.3535 17.3504C22.3442 17.3738 22.3348 17.3972 22.3301 17.4206L21.5676 21.5797C21.5255 21.8043 21.6003 22.0382 21.7641 22.2019C21.8015 22.2394 21.8436 22.2721 21.8857 22.3002C21.8997 22.3095 21.9138 22.3142 21.9278 22.3236C21.9606 22.3423 21.9933 22.3563 22.0307 22.3704C22.0448 22.375 22.0635 22.3797 22.0775 22.3844C22.1149 22.3938 22.1477 22.3984 22.1851 22.4031C22.1992 22.4031 22.2179 22.4078 22.2319 22.4078C22.2413 22.4078 22.2506 22.4125 22.26 22.4125C22.3021 22.4125 22.3442 22.4078 22.3863 22.4031L26.5454 21.6405C26.5735 21.6358 26.5969 21.6218 26.6249 21.6125C26.653 21.6031 26.6811 21.5984 26.7092 21.5844C26.7793 21.5516 26.8448 21.5095 26.901 21.4534C26.9057 21.4487 26.9103 21.4487 26.9103 21.444L39.2474 9.10233V29.9447ZM42.0076 4.3584L26.4144 19.9516L24.0097 17.5469L36.5339 5.02274C36.5385 5.01806 36.5385 5.01338 36.5432 5.0087L39.5982 1.95369C39.8649 1.6917 40.2906 1.68702 40.5526 1.94433L42.0076 3.39932C42.1339 3.52564 42.2041 3.69406 42.2041 3.87184C42.2041 4.05898 42.1339 4.23208 42.0076 4.3584Z" fill="#E1FE6E"/>
</svg>
