<svg width="40" height="41" viewBox="0 0 40 41" fill="none" xmlns="http://www.w3.org/2000/svg">
<path d="M36.875 1.60425H3.125C2.62789 1.60482 2.15131 1.80254 1.7998 2.15405C1.4483 2.50556 1.25057 2.98214 1.25 3.47925V30.9792C1.25057 31.4764 1.4483 31.9529 1.7998 32.3044C2.15131 32.656 2.62789 32.8537 3.125 32.8542H16.035L14.535 37.8542H12.5V39.1042H27.5V37.8542H25.465L23.965 32.8542H36.875C37.3721 32.8537 37.8487 32.656 38.2002 32.3044C38.5517 31.9529 38.7494 31.4764 38.75 30.9792V3.47925C38.7494 2.98214 38.5517 2.50556 38.2002 2.15405C37.8487 1.80254 37.3721 1.60482 36.875 1.60425ZM24.16 37.8542H15.84L17.34 32.8542H22.66L24.16 37.8542ZM37.5 30.9792C37.4998 31.145 37.4339 31.3038 37.3167 31.421C37.1996 31.5381 37.0407 31.6041 36.875 31.6042H3.125C2.9593 31.6041 2.80044 31.5381 2.68327 31.421C2.5661 31.3038 2.50019 31.145 2.5 30.9792V29.1042H37.5V30.9792ZM37.5 27.8542H2.5V3.47925C2.50019 3.31355 2.5661 3.15468 2.68327 3.03752C2.80044 2.92035 2.9593 2.85444 3.125 2.85425H36.875C37.0407 2.85444 37.1996 2.92035 37.3167 3.03752C37.4339 3.15468 37.4998 3.31355 37.5 3.47925V27.8542Z" fill="#E1FE6E"/>
<path d="M34.375 12.2293H26.1428C26.0607 12.2295 25.9793 12.2134 25.9034 12.182C25.8276 12.1506 25.7587 12.1044 25.7008 12.0461L23.9331 10.2784C23.7594 10.1038 23.5527 9.9653 23.3252 9.87103C23.0976 9.77677 22.8536 9.72858 22.6072 9.72926H15.625C15.1279 9.72982 14.6513 9.92755 14.2998 10.2791C13.9483 10.6306 13.7506 11.1071 13.75 11.6043V24.7293C13.7506 25.2264 13.9483 25.7029 14.2998 26.0545C14.6513 26.406 15.1279 26.6037 15.625 26.6043H34.375C34.8721 26.6037 35.3487 26.406 35.7002 26.0545C36.0517 25.7029 36.2494 25.2264 36.25 24.7293V14.1043C36.2494 13.6071 36.0517 13.1306 35.7002 12.7791C35.3487 12.4276 34.8721 12.2298 34.375 12.2293ZM35 24.7293C34.9998 24.895 34.9339 25.0538 34.8167 25.171C34.6996 25.2882 34.5407 25.3541 34.375 25.3543H15.625C15.4593 25.3541 15.3004 25.2882 15.1833 25.171C15.0661 25.0538 15.0002 24.895 15 24.7293V11.6043C15.0002 11.4386 15.0661 11.2797 15.1833 11.1625C15.3004 11.0454 15.4593 10.9794 15.625 10.9793H22.6072C22.6893 10.979 22.7707 10.9951 22.8466 11.0265C22.9224 11.058 22.9913 11.1041 23.0492 11.1624L24.8169 12.9301C24.9906 13.1047 25.1973 13.2432 25.4248 13.3375C25.6524 13.4317 25.8964 13.4799 26.1428 13.4793H34.375C34.5407 13.4794 34.6996 13.5454 34.8167 13.6625C34.9339 13.7797 34.9998 13.9386 35 14.1043V24.7293Z" fill="#E1FE6E"/>
<path d="M20.8071 15.5374L17.2402 19.1043L20.8071 22.6713L21.691 21.7874L19.0079 19.1043L21.691 16.4213L20.8071 15.5374Z" fill="#E1FE6E"/>
<path d="M23.209 21.9368L26.3363 16.3128L27.4287 16.9202L24.3014 22.5442L23.209 21.9368Z" fill="#E1FE6E"/>
<path d="M28.3086 16.4213L30.9917 19.1043L28.3086 21.7874L29.1925 22.6713L32.7594 19.1043L29.1925 15.5374L28.3086 16.4213Z" fill="#E1FE6E"/>
<path d="M15.8433 5.35425L16.8554 7.71511L19.0874 8.63995L21.4764 7.68534L22.7123 8.9212L23.5961 8.0373L21.7777 6.21878L19.096 7.29042L17.8038 6.75503L16.6674 4.10425H13.3326L12.1962 6.75503L10.904 7.29042L8.22234 6.21878L5.86461 8.57659L6.93617 11.2582L6.40078 12.5504L3.75 13.6868V17.0217L6.4007 18.1581L6.93617 19.4503L5.86453 22.1319L8.22227 24.4897L10.904 23.4181L12.2607 23.9803L12.7393 22.8255L10.9126 22.0685L8.52359 23.0232L7.33109 21.8307L8.2857 19.4417L7.36078 17.2096L5 16.1975V14.511L7.36086 13.4989L8.2857 11.2668L7.33109 8.87784L8.52367 7.68534L10.9126 8.63995L13.1446 7.71511L14.1567 5.35425H15.8433Z" fill="#E1FE6E"/>
<path d="M12.7781 10.8737L12.2219 9.75427C11.1792 10.2719 10.3018 11.0704 9.68839 12.0598C9.075 13.0492 8.75 14.1902 8.75 15.3542C8.75 16.5183 9.075 17.6593 9.68839 18.6487C10.3018 19.6381 11.1792 20.4366 12.2219 20.9542L12.7781 19.8348C11.9438 19.4207 11.2417 18.7819 10.7509 17.9902C10.2601 17.1986 10 16.2857 10 15.3542C10 14.4228 10.2601 13.5099 10.7509 12.7183C11.2417 11.9266 11.9438 11.2878 12.7781 10.8737Z" fill="#E1FE6E"/>
</svg>
