<svg width="40" height="41" viewBox="0 0 40 41" fill="none" xmlns="http://www.w3.org/2000/svg">
<g clip-path="url(#clip0_222_104)">
<path d="M39.036 23.9543L37.2 23.2209C36.9489 22.3254 36.5908 21.4634 36.1333 20.6536L36.9087 18.8369C37.0174 18.5926 37.0551 18.3226 37.0174 18.0579C36.9796 17.7931 36.868 17.5444 36.6953 17.3402C36.1833 16.7307 35.6194 16.1666 35.01 15.6542C34.8062 15.4814 34.5578 15.3695 34.2933 15.3316C34.0287 15.2936 33.7589 15.331 33.5147 15.4396L31.6973 16.2156C30.8875 15.7588 30.0258 15.4006 29.1307 15.1489L28.3973 13.3142C28.3086 13.1032 28.1716 12.916 27.9973 12.7676V5.68758C27.9973 2.22091 20.7847 0.354248 13.9973 0.354248C7.21 0.354248 0 2.22091 0 5.68758V29.6876C0 33.1542 7.21267 35.0209 14 35.0209C14.3667 35.0209 14.7207 35.0082 15.078 34.9989C15.1321 35.1337 15.2073 35.259 15.3007 35.3702C15.8131 35.9795 16.3769 36.5436 16.986 37.0563C17.1899 37.2289 17.4383 37.3406 17.7028 37.3786C17.9673 37.4165 18.2371 37.3792 18.4813 37.2709L20.2987 36.4949C21.1085 36.9517 21.9702 37.3098 22.8653 37.5616L23.5987 39.3962C23.6972 39.6421 23.8611 39.8563 24.0726 40.0156C24.2841 40.175 24.5352 40.2734 24.7987 40.3002C25.214 40.3376 25.63 40.3556 26.0347 40.3556C26.4393 40.3556 26.8347 40.3376 27.2027 40.3002C27.4662 40.2731 27.7174 40.1744 27.9289 40.0149C28.1404 39.8553 28.3042 39.6409 28.4027 39.3949L29.136 37.5616C30.0311 37.3098 30.8928 36.9517 31.7027 36.4949L33.5187 37.2702C33.7631 37.3785 34.0332 37.4158 34.2978 37.3778C34.5625 37.3399 34.8111 37.2282 35.0153 37.0556C35.6245 36.5433 36.1884 35.9795 36.7007 35.3702C36.8732 35.1664 36.9848 34.9181 37.0227 34.6537C37.0605 34.3893 37.0231 34.1196 36.9147 33.8756L36.1387 32.0569C36.5944 31.2462 36.9508 30.3836 37.2 29.4876L39.0367 28.7542C39.281 28.6558 39.4939 28.4928 39.6526 28.2825C39.8112 28.0723 39.9097 27.8229 39.9373 27.5609C40.017 26.7593 40.017 25.9518 39.9373 25.1502C39.9099 24.8878 39.8115 24.6379 39.6527 24.4271C39.4939 24.2164 39.2807 24.053 39.036 23.9543ZM14 1.68758C21.4667 1.68758 26.6667 3.79558 26.6667 5.68758C26.6667 7.57958 21.4667 9.68758 14 9.68758C6.53333 9.68758 1.33333 7.57958 1.33333 5.68758C1.33333 3.79558 6.53333 1.68758 14 1.68758ZM1.33333 8.06158C3.72733 9.99691 8.97867 11.0209 14 11.0209C19.0213 11.0209 24.2727 9.99691 26.6667 8.06158V12.3856C26.0447 12.3475 25.4208 12.3555 24.8 12.4096C24.5364 12.4367 24.2853 12.5354 24.0738 12.695C23.8623 12.8545 23.6984 13.0689 23.6 13.3149L22.8667 15.1482C21.9716 15.4 21.1099 15.7581 20.3 16.2149L18.484 15.4396C18.2396 15.3305 17.9693 15.2927 17.7043 15.3307C17.4394 15.3687 17.1906 15.4809 16.9867 15.6542C16.378 16.1668 15.8144 16.7307 15.302 17.3396C15.2191 17.4371 15.1502 17.5457 15.0973 17.6622C14.7333 17.6729 14.37 17.6876 14 17.6876C6.53333 17.6876 1.33333 15.5796 1.33333 13.6876V8.06158ZM1.33333 16.0616C3.72733 17.9969 8.97867 19.0209 14 19.0209C14.3893 19.0209 14.772 19.0056 15.1547 18.9929L15.8627 20.6516C15.4065 21.4622 15.0497 22.3249 14.8 23.2209L12.9633 23.9543C12.719 24.0527 12.5061 24.2157 12.3474 24.426C12.1888 24.6362 12.0903 24.8856 12.0627 25.1476C12.0467 25.3076 12.048 25.4689 12.0387 25.6296C5.60933 25.2876 1.33333 23.3602 1.33333 21.6876V16.0616ZM15.1767 33.6616C14.788 33.6749 14.4 33.6876 14 33.6876C6.53333 33.6876 1.33333 31.5796 1.33333 29.6876V24.0169C3.07467 25.4762 6.57267 26.6942 12.03 26.9609C12.04 27.1609 12.04 27.3609 12.06 27.5609C12.0868 27.8244 12.1852 28.0755 12.3446 28.2871C12.5039 28.4986 12.7181 28.6625 12.964 28.7609L14.7973 29.4942C15.0484 30.3898 15.4065 31.2518 15.864 32.0616L15.1767 33.6616ZM38.6127 27.4349C38.608 27.4531 38.5991 27.47 38.5867 27.4841C38.5744 27.4983 38.5588 27.5093 38.5413 27.5162L36.396 28.3729C36.2976 28.4122 36.21 28.4744 36.1405 28.5542C36.0709 28.6341 36.0214 28.7294 35.996 28.8322C35.7486 29.8296 35.3526 30.784 34.8213 31.6636C34.7668 31.754 34.7346 31.8562 34.7273 31.9615C34.72 32.0669 34.7378 32.1725 34.7793 32.2696L35.6873 34.3983C35.6967 34.4156 35.701 34.4354 35.6995 34.4551C35.6981 34.4748 35.6911 34.4937 35.6793 34.5096C35.2132 35.0638 34.7002 35.5768 34.146 36.0429C34.13 36.0522 34.1118 36.057 34.0933 36.057C34.0748 36.057 34.0567 36.0522 34.0407 36.0429L31.9153 35.1356C31.8183 35.0942 31.7128 35.0764 31.6076 35.0837C31.5024 35.091 31.4004 35.1232 31.31 35.1776C30.431 35.7095 29.477 36.1062 28.48 36.3542C28.3772 36.3796 28.2819 36.4292 28.202 36.4987C28.1221 36.5683 28.0599 36.6559 28.0207 36.7542L27.1647 38.8976C27.1578 38.9167 27.146 38.9338 27.1304 38.9469C27.1148 38.96 27.0961 38.9687 27.076 38.9722C26.3577 39.0383 25.6349 39.0383 24.9167 38.9722C24.8983 38.9677 24.8813 38.9587 24.8672 38.9461C24.8531 38.9334 24.8424 38.9174 24.836 38.8996L23.9793 36.7542C23.9401 36.6559 23.8779 36.5683 23.798 36.4987C23.7181 36.4292 23.6228 36.3796 23.52 36.3542C22.5226 36.1069 21.5682 35.7109 20.6887 35.1796C20.5983 35.1252 20.4963 35.093 20.3911 35.0857C20.2858 35.0784 20.1804 35.0962 20.0833 35.1376L17.9567 36.0456C17.939 36.0552 17.9189 36.0594 17.8988 36.0576C17.8788 36.0559 17.8597 36.0482 17.844 36.0356C17.2909 35.5694 16.779 35.0564 16.314 34.5023C16.3048 34.4863 16.3 34.4683 16.3 34.4499C16.3 34.4315 16.3048 34.4135 16.314 34.3976L17.2213 32.2709C17.2628 32.1738 17.2807 32.0682 17.2734 31.9629C17.2661 31.8575 17.2338 31.7554 17.1793 31.6649C16.6481 30.7854 16.2521 29.8309 16.0047 28.8336C15.9793 28.7307 15.9298 28.6354 15.8602 28.5556C15.7906 28.4757 15.703 28.4135 15.6047 28.3742L13.4627 27.5189C13.4445 27.5121 13.4283 27.501 13.4153 27.4867C13.4023 27.4723 13.3929 27.455 13.388 27.4362V27.4289C13.3163 26.7109 13.3163 25.9876 13.388 25.2696C13.3926 25.2514 13.4015 25.2345 13.4139 25.2204C13.4263 25.2062 13.4419 25.1952 13.4593 25.1882L15.6047 24.3316C15.703 24.2923 15.7906 24.2301 15.8602 24.1503C15.9298 24.0704 15.9793 23.9751 16.0047 23.8722C16.2521 22.8749 16.6481 21.9205 17.1793 21.0409C17.2338 20.9505 17.2661 20.8483 17.2734 20.743C17.2807 20.6376 17.2628 20.532 17.2213 20.4349L16.3127 18.3076C16.3033 18.2902 16.299 18.2705 16.3005 18.2508C16.3019 18.231 16.3089 18.2121 16.3207 18.1962C16.7871 17.6423 17.3001 17.1294 17.854 16.6629C17.8701 16.6538 17.8882 16.649 17.9067 16.649C17.9251 16.649 17.9433 16.6538 17.9593 16.6629L20.0847 17.5702C20.1816 17.6121 20.2871 17.6301 20.3924 17.6228C20.4977 17.6155 20.5998 17.5831 20.69 17.5282C21.5691 16.9973 22.5231 16.6015 23.52 16.3542C23.6228 16.3289 23.7181 16.2793 23.798 16.2098C23.8779 16.1402 23.9401 16.0526 23.9793 15.9542L24.8353 13.8109C24.8422 13.7918 24.854 13.7747 24.8696 13.7616C24.8852 13.7485 24.9039 13.7398 24.924 13.7362C25.6422 13.6695 26.3651 13.6695 27.0833 13.7362C27.1017 13.7408 27.1187 13.7497 27.1328 13.7624C27.1469 13.7751 27.1576 13.7911 27.164 13.8089L28.0207 15.9542C28.0599 16.0526 28.1221 16.1402 28.202 16.2098C28.2819 16.2793 28.3772 16.3289 28.48 16.3542C29.4774 16.6016 30.4318 16.9976 31.3113 17.5289C31.4016 17.5837 31.5036 17.6161 31.6089 17.6234C31.7142 17.6307 31.8197 17.6127 31.9167 17.5709L34.0433 16.6629C34.061 16.6534 34.0811 16.6492 34.1012 16.651C34.1212 16.6528 34.1403 16.6604 34.156 16.6729C34.7104 17.1388 35.2235 17.6518 35.6893 18.2062C35.6985 18.2222 35.7034 18.2402 35.7034 18.2586C35.7034 18.277 35.6985 18.295 35.6893 18.3109L34.782 20.4376C34.7405 20.5347 34.7227 20.6403 34.73 20.7456C34.7373 20.851 34.7695 20.9531 34.824 21.0436C35.3553 21.9231 35.7512 22.8776 35.9987 23.8749C36.0241 23.9777 36.0736 24.0731 36.1431 24.1529C36.2127 24.2328 36.3003 24.295 36.3987 24.3342L38.5407 25.1896C38.5598 25.1969 38.5768 25.2091 38.59 25.2248C38.6032 25.2406 38.6121 25.2594 38.616 25.2796C38.6865 25.9972 38.6854 26.7201 38.6127 27.4376V27.4349Z" fill="#E1FE6E"/>
<path d="M26.0007 17.6877C24.2865 17.6877 22.6109 18.196 21.1857 19.1483C19.7605 20.1006 18.6497 21.4542 17.9937 23.0378C17.3377 24.6214 17.1661 26.364 17.5005 28.0452C17.8349 29.7264 18.6603 31.2706 19.8724 32.4827C21.0845 33.6947 22.6287 34.5201 24.3099 34.8546C25.991 35.189 27.7336 35.0173 29.3172 34.3614C30.9009 33.7054 32.2544 32.5946 33.2067 31.1694C34.159 29.7441 34.6673 28.0685 34.6673 26.3544C34.6647 24.0567 33.7507 21.8538 32.126 20.2291C30.5012 18.6043 28.2984 17.6904 26.0007 17.6877ZM26.0007 33.6877C24.5503 33.6877 23.1324 33.2577 21.9265 32.4519C20.7205 31.6461 19.7806 30.5007 19.2255 29.1608C18.6705 27.8208 18.5253 26.3463 18.8082 24.9237C19.0912 23.5012 19.7896 22.1945 20.8152 21.169C21.8408 20.1434 23.1475 19.4449 24.57 19.162C25.9925 18.879 27.467 19.0243 28.807 19.5793C30.147 20.1343 31.2923 21.0743 32.0981 22.2802C32.9039 23.4862 33.334 24.904 33.334 26.3544C33.3317 28.2986 32.5583 30.1626 31.1836 31.5373C29.8088 32.9121 27.9449 33.6855 26.0007 33.6877Z" fill="#E1FE6E"/>
<path d="M25.9994 21.0208C24.9445 21.0208 23.9134 21.3335 23.0363 21.9196C22.1592 22.5056 21.4757 23.3386 21.072 24.3131C20.6683 25.2876 20.5627 26.36 20.7685 27.3946C20.9743 28.4291 21.4822 29.3794 22.2281 30.1253C22.974 30.8712 23.9243 31.3792 24.9589 31.5849C25.9934 31.7907 27.0658 31.6851 28.0403 31.2814C29.0149 30.8778 29.8478 30.1942 30.4339 29.3171C31.0199 28.4401 31.3327 27.4089 31.3327 26.3541C31.3311 24.9401 30.7687 23.5845 29.7688 22.5846C28.769 21.5848 27.4134 21.0223 25.9994 21.0208ZM25.9994 30.3541C25.2082 30.3541 24.4349 30.1195 23.7771 29.68C23.1193 29.2404 22.6066 28.6157 22.3038 27.8848C22.0011 27.1539 21.9219 26.3496 22.0762 25.5737C22.2306 24.7978 22.6115 24.0851 23.1709 23.5257C23.7303 22.9662 24.4431 22.5853 25.219 22.4309C25.9949 22.2766 26.7992 22.3558 27.5301 22.6586C28.261 22.9613 28.8857 23.474 29.3252 24.1318C29.7648 24.7896 29.9994 25.563 29.9994 26.3541C29.9983 27.4146 29.5765 28.4314 28.8266 29.1813C28.0767 29.9313 27.0599 30.353 25.9994 30.3541Z" fill="#E1FE6E"/>
<path d="M3.05022 13.0914C3.27355 13.1961 3.50955 13.2968 3.75489 13.3941C3.91844 13.4548 4.09929 13.449 4.25862 13.3779C4.41795 13.3069 4.54306 13.1761 4.60711 13.0138C4.67115 12.8516 4.66902 12.6706 4.60118 12.5099C4.53333 12.3492 4.40518 12.2214 4.24422 12.1541C4.02466 12.0674 3.81511 11.9772 3.61555 11.8834C3.45536 11.8085 3.27195 11.8002 3.10567 11.8605C2.93939 11.9207 2.80385 12.0446 2.72889 12.2048C2.65392 12.365 2.64566 12.5484 2.70592 12.7146C2.76618 12.8809 2.89003 13.0165 3.05022 13.0914Z" fill="#E1FE6E"/>
<path d="M6.51566 14.2342C6.74011 14.2871 6.969 14.3368 7.20233 14.3835C7.24621 14.3924 7.2909 14.3966 7.33566 14.3962C7.50099 14.3963 7.66048 14.3351 7.78317 14.2243C7.90587 14.1134 7.98301 13.961 7.99962 13.7965C8.01624 13.632 7.97114 13.4672 7.87309 13.3341C7.77503 13.201 7.63102 13.1091 7.469 13.0762C7.249 13.0322 7.03366 12.9848 6.82233 12.9362C6.73615 12.9135 6.6463 12.9084 6.55811 12.9211C6.46991 12.9338 6.38515 12.964 6.30884 13.01C6.23253 13.056 6.16621 13.1168 6.11381 13.1889C6.0614 13.261 6.02398 13.3428 6.00375 13.4296C5.98351 13.5164 5.98088 13.6063 5.996 13.6941C6.01112 13.7819 6.04369 13.8658 6.09179 13.9408C6.13989 14.0158 6.20253 14.0804 6.27602 14.1308C6.34951 14.1812 6.43236 14.2164 6.51966 14.2342H6.51566Z" fill="#E1FE6E"/>
</g>
<defs>
<clipPath id="clip0_222_104">
<rect width="40" height="40" fill="white" transform="translate(0 0.354248)"/>
</clipPath>
</defs>
</svg>
