<svg width="40" height="41" viewBox="0 0 40 41" fill="none" xmlns="http://www.w3.org/2000/svg">
<g clip-path="url(#clip0_222_130)">
<path d="M39.4129 28.887C39.7372 28.887 40 28.6241 40 28.2999V11.5895C40 11.2653 39.7372 11.0024 39.4129 11.0024H30.8851C30.2317 10.2708 29.4203 9.57979 28.416 8.99737C28.1022 8.10456 27.7391 7.22776 27.3234 6.37034C27.1818 6.07854 26.8309 5.95675 26.5389 6.09823C26.2472 6.23972 26.1253 6.59089 26.2668 6.88261C27.6733 9.78339 28.4709 12.9101 28.6377 16.1759C28.6472 16.3621 28.5816 16.5393 28.4528 16.6748C28.3234 16.811 28.1488 16.8859 27.9611 16.8859H16.7902C16.6025 16.8859 16.4278 16.811 16.2985 16.6748C16.1698 16.5393 16.1041 16.3621 16.1136 16.1758C16.5016 8.57683 20.2677 3.56042 21.8688 1.75644C21.9993 1.6094 22.1794 1.52839 22.3756 1.52839C22.5719 1.52839 22.7519 1.6094 22.8823 1.75644C23.4316 2.37511 24.2651 3.403 25.117 4.78612C25.2871 5.06229 25.6488 5.14815 25.9248 4.97808C26.2009 4.808 26.2869 4.44636 26.1168 4.17034C25.2205 2.71519 24.3407 1.63058 23.7606 0.976982C23.4093 0.581279 22.9045 0.354326 22.3757 0.354248C22.3756 0.354248 22.3756 0.354248 22.3756 0.354248C21.8468 0.354248 21.342 0.581279 20.9906 0.977061C20.0377 2.05073 18.646 3.858 17.4279 6.37034C17.0122 7.22776 16.6491 8.10448 16.3352 8.99737C15.3309 9.57979 14.5195 10.2709 13.8662 11.0025H5.50781V4.71667C5.50781 4.39245 5.245 4.12956 4.9207 4.12956C2.20742 4.12956 0 6.33604 0 9.04815C0 9.04815 0.00539062 35.9341 0.0147656 35.9757C0.100547 37.1274 0.598437 38.1975 1.43156 39.0096C2.32094 39.8767 3.49516 40.3542 4.73781 40.3542H39.4129C39.7372 40.3542 40 40.0914 40 39.7671V30.6482C40 30.324 39.7372 30.0611 39.4129 30.0611C39.0886 30.0611 38.8258 30.324 38.8258 30.6482V39.18H4.73781C2.79633 39.18 1.23398 37.6629 1.17727 35.7246C1.24188 33.7162 2.8957 32.102 4.9207 32.102C5.245 32.102 5.50781 31.8391 5.50781 31.5149V18.6471C5.50781 18.3229 5.245 18.06 4.9207 18.06C4.59641 18.06 4.33359 18.3228 4.33359 18.6471V30.9628C3.07328 31.1132 1.95773 31.7417 1.17414 32.6611V9.04815C1.17414 7.18308 2.5457 5.63214 4.33359 5.34972V16.2988C4.33359 16.623 4.59641 16.8859 4.9207 16.8859C5.245 16.8859 5.50781 16.623 5.50781 16.2988V12.1765H12.9616C11.8314 13.8835 11.4039 15.6046 11.2473 16.5264C11.1823 16.9081 11.2885 17.2968 11.5385 17.5929C11.7891 17.8898 12.1558 18.06 12.5445 18.06H18.0066V19.0835C18.0066 19.5257 18.2441 19.9125 18.5976 20.1263C17.5562 21.7193 17.9156 23.3133 18.3214 24.0191C18.4779 24.2912 18.8209 24.3922 19.0998 24.248L19.5759 24.0021C20.2591 25.8367 22.0145 26.7975 22.0982 26.8425C22.1849 26.8889 22.2803 26.9122 22.3758 26.9122C22.4713 26.9122 22.5666 26.8889 22.6534 26.8425C22.737 26.7975 24.4924 25.8368 25.1757 24.0021L25.6516 24.248C25.9302 24.392 26.2735 24.2913 26.4301 24.0191C26.4668 23.9552 26.7901 23.3701 26.8327 22.5018C26.8629 21.8837 26.7495 21.0274 26.1559 20.125C26.5082 19.9111 26.7448 19.5249 26.7448 19.0835V18.06H32.207C32.5956 18.06 32.9623 17.8897 33.213 17.5928C33.463 17.2967 33.5691 16.908 33.5042 16.5264C33.3476 15.6046 32.9201 13.8835 31.7898 12.1764H38.8261V28.2998C38.8259 28.6242 39.0887 28.887 39.4129 28.887ZM12.4356 16.8354C12.4166 16.813 12.3959 16.7753 12.4048 16.7232C12.6098 15.5168 13.3324 12.7789 15.7771 10.8012C15.3148 12.5232 15.0337 14.2989 14.9409 16.116C14.9273 16.3839 14.9708 16.6447 15.0656 16.8859H12.5445C12.4897 16.8859 12.4551 16.8584 12.4356 16.8354ZM25.5998 22.8997L25.0716 22.6267C24.9057 22.541 24.7088 22.5393 24.5414 22.6223C24.3741 22.7052 24.2561 22.8628 24.2239 23.0468C23.9901 24.3782 22.897 25.2735 22.3757 25.632C21.8538 25.273 20.7612 24.3778 20.5273 23.0468C20.4951 22.8628 20.3771 22.7053 20.2098 22.6223C20.0423 22.5393 19.8455 22.541 19.6796 22.6267L19.1516 22.8996C19.0214 22.3154 19.0138 21.3295 19.9407 20.3025H24.8104C25.7381 21.3303 25.7298 22.3169 25.5998 22.8997ZM25.5705 19.0835C25.5705 19.1083 25.5504 19.1284 25.5256 19.1284H19.2256C19.2009 19.1284 19.1808 19.1082 19.1808 19.0835V18.0601H25.5705V19.0835H25.5705ZM32.3156 16.8354C32.2962 16.8585 32.2616 16.8859 32.2068 16.8859H29.6857C29.7805 16.6447 29.8241 16.3839 29.8104 16.116C29.7176 14.2989 29.4365 12.5232 28.9742 10.8012C31.4189 12.7789 32.1415 15.5168 32.3466 16.7232C32.3553 16.7753 32.3346 16.813 32.3156 16.8354Z" fill="#E1FE6E"/>
<path d="M22.3762 7.14478C20.5157 7.14478 19.002 8.65782 19.002 10.5177C19.002 12.3775 20.5157 13.8906 22.3762 13.8906C24.2368 13.8906 25.7505 12.3775 25.7505 10.5177C25.7505 8.6579 24.2368 7.14478 22.3762 7.14478ZM22.3762 12.7164C21.1631 12.7164 20.1762 11.7301 20.1762 10.5177C20.1762 9.30532 21.1631 8.31899 22.3762 8.31899C23.5894 8.31899 24.5763 9.30532 24.5763 10.5177C24.5763 11.7301 23.5894 12.7164 22.3762 12.7164Z" fill="#E1FE6E"/>
<path d="M32.0601 28.7055C33.1705 28.7055 34.0741 27.8024 34.0741 26.6922C34.0741 25.5821 33.1705 24.679 32.0601 24.679C30.9496 24.679 30.0461 25.5821 30.0461 26.6922C30.0461 27.0322 30.1311 27.3525 30.2805 27.6336L25.9063 31.6685C25.6059 31.4902 25.2555 31.3874 24.8816 31.3874C24.4052 31.3874 23.9672 31.554 23.622 31.8314L19.9047 29.274C19.9663 29.0811 19.9999 28.8758 19.9999 28.6627C19.9999 27.5525 19.0964 26.6494 17.9859 26.6494C16.8755 26.6494 15.972 27.5525 15.972 28.6627C15.972 28.9743 16.0432 29.2696 16.1702 29.5332L11.5762 33.7707C11.2697 33.5821 10.9093 33.4731 10.5237 33.4731C9.41328 33.4731 8.50977 34.3763 8.50977 35.4865C8.50977 36.5966 9.41328 37.4997 10.5237 37.4997C11.6342 37.4997 12.5377 36.5966 12.5377 35.4865C12.5377 35.188 12.472 34.9048 12.3549 34.6498L16.9652 30.3972C17.2647 30.5741 17.6136 30.6761 17.9859 30.6761C18.458 30.6761 18.8923 30.5124 19.2362 30.2394L22.959 32.8006C22.8996 32.9902 22.8676 33.1918 22.8676 33.4008C22.8676 34.5109 23.7711 35.4141 24.8816 35.4141C25.9921 35.4141 26.8956 34.5109 26.8956 33.4008C26.8956 33.0908 26.8251 32.7971 26.6994 32.5345L31.1095 28.4665C31.3927 28.6188 31.7164 28.7055 32.0601 28.7055ZM32.0601 25.8531C32.5231 25.8531 32.8998 26.2296 32.8998 26.6922C32.8998 27.1549 32.5231 27.5314 32.0601 27.5314C31.597 27.5314 31.2202 27.1549 31.2202 26.6922C31.2203 26.2296 31.597 25.8531 32.0601 25.8531ZM10.5237 36.3255C10.0606 36.3255 9.68398 35.9491 9.68398 35.4864C9.68398 35.0236 10.0607 34.6472 10.5237 34.6472C10.9869 34.6472 11.3636 35.0236 11.3636 35.4864C11.3635 35.9491 10.9868 36.3255 10.5237 36.3255ZM17.1461 28.6627C17.1461 28.2 17.5228 27.8236 17.9859 27.8236C18.4491 27.8236 18.8258 28.2 18.8258 28.6627C18.8258 29.1254 18.4491 29.5018 17.9859 29.5018C17.5228 29.5018 17.1461 29.1254 17.1461 28.6627ZM24.8815 34.2398C24.4184 34.2398 24.0416 33.8633 24.0416 33.4007C24.0416 32.938 24.4184 32.5615 24.8815 32.5615C25.3446 32.5615 25.7213 32.938 25.7213 33.4007C25.7213 33.8634 25.3446 34.2398 24.8815 34.2398Z" fill="#E1FE6E"/>
</g>
<defs>
<clipPath id="clip0_222_130">
<rect width="40" height="40" fill="white" transform="translate(0 0.354248)"/>
</clipPath>
</defs>
</svg>
