<svg width="40" height="40" viewBox="0 0 40 40" fill="none" xmlns="http://www.w3.org/2000/svg">
<path d="M23.0586 13.5746C23.7255 13.5746 24.2911 13.7304 24.7607 13.991V8.83203C24.7607 8.14165 24.2011 7.58203 23.5107 7.58203H22.2607C21.5704 7.58203 21.0107 8.14165 21.0107 8.83203V14.2125C21.5377 13.8177 22.22 13.5746 23.0586 13.5746Z" fill="white"/>
<path d="M17.9123 15.5693C18.1227 15.5693 18.32 15.5892 18.5107 15.6182V11.957C18.5107 11.2667 17.9511 10.707 17.2607 10.707H16.0107C15.3204 10.707 14.7607 11.2667 14.7607 11.957V17.582C14.7607 17.6242 14.7691 17.6641 14.7731 17.7051C15.2147 16.5122 16.2597 15.5693 17.9123 15.5693Z" fill="white"/>
<path d="M33.5107 1.33203H11.0107C9.32171 1.33203 7.89287 2.45554 7.42508 3.99362C5.8852 4.46039 4.76074 5.8917 4.76074 7.58203V11.957H4.13574C3.1018 11.957 2.26074 12.7981 2.26074 13.832C2.26074 14.866 3.1018 15.707 4.13574 15.707H4.76074V23.6862H4.13574C3.1018 23.6862 2.26074 24.5272 2.26074 25.5612C2.26074 26.5951 3.1018 27.4362 4.13574 27.4362H4.76074V32.582C4.76074 34.6499 6.44287 36.332 8.51074 36.332H22.8857C20.9715 36.332 19.129 35.8915 17.4552 35.082H8.51074C7.13226 35.082 6.01074 33.9608 6.01074 32.582V29.0725L7.04712 29.5907C8.23511 30.233 9.80464 29.2656 9.76071 27.9134C9.76074 27.9135 9.76074 23.2089 9.76074 23.2089C9.80383 21.8579 8.237 20.8882 7.04709 21.5317C7.04712 21.5316 6.01074 22.0498 6.01074 22.0498V17.3434L7.04712 17.8616C8.23511 18.5039 9.80464 17.5365 9.76071 16.1843C9.76074 16.1843 9.76074 11.4797 9.76074 11.4797C9.80383 10.1288 8.237 9.15904 7.04709 9.80254C7.04712 9.80249 6.01074 10.3207 6.01074 10.3207V7.58203C6.01074 6.20325 7.13226 5.08203 8.51074 5.08203H31.0107C32.3892 5.08203 33.5107 6.20325 33.5107 7.58203V17.2479C35.6993 20.7808 36.0009 25.2256 34.2239 29.0664C34.8685 29.45 36.6483 30.3289 37.1766 30.832C37.2265 30.5887 37.2607 30.3399 37.2607 30.082V5.08203C37.2607 3.01416 35.5786 1.33203 33.5107 1.33203ZM4.13574 14.457C3.31427 14.4424 3.3146 13.2215 4.13577 13.207C4.13574 13.207 4.76074 13.207 4.76074 13.207V14.457H4.13574ZM4.13574 26.1862C3.31427 26.1715 3.3146 24.9506 4.13577 24.9362C4.13574 24.9362 4.76074 24.9362 4.76074 24.9362V26.1862H4.13574Z" fill="white"/>
<path d="M28.1229 35.1748C26.4838 35.9347 24.696 36.332 22.8857 36.332H28.7657L28.1229 35.1748Z" fill="white"/>
<path d="M37.6981 34.2123C37.5257 32.9812 36.8036 31.9289 35.7172 31.3259L32.5503 29.5664C36.9815 22.2791 31.5843 12.4975 22.8859 12.5821C12.9431 12.5414 7.88021 24.7688 14.9312 31.7868C18.4224 35.4012 24.3684 36.1245 28.6224 33.4994L30.3797 36.6628C32.4825 40.4243 38.283 38.487 37.6981 34.2123ZM28.6313 29.5772C25.6073 32.729 20.1648 32.7295 17.1409 29.5771C12.0444 24.5458 15.728 15.6468 22.8862 15.7071C30.0441 15.6475 33.7283 24.546 28.6313 29.5772Z" fill="#E4FE7D"/>
</svg>
