<svg width="36" height="40" viewBox="0 0 36 40" fill="none" xmlns="http://www.w3.org/2000/svg">
<path d="M35.1161 21.3636H0.884812C0.539656 21.3636 0.259812 21.6435 0.259812 21.9886V24.305C0.259812 24.5635 0.419031 24.7953 0.660281 24.8882L3.1927 25.8631C3.54598 27.2162 4.08239 28.5103 4.79091 29.7182L3.6888 32.1997C3.5838 32.436 3.6352 32.7125 3.81802 32.8953L7.09388 36.1712C7.27669 36.354 7.55325 36.4053 7.7895 36.3004L10.2718 35.1979C11.4803 35.9064 12.7738 36.4428 14.1258 36.7957L15.1008 39.3288C15.1936 39.57 15.4255 39.7292 15.6841 39.7292H20.3167C20.5753 39.7292 20.8071 39.57 20.9 39.3288L21.8747 36.7964C23.2277 36.4433 24.5217 35.9068 25.7299 35.1982L28.2114 36.3004C28.4476 36.4055 28.7242 36.354 28.907 36.1711L32.1828 32.8952C32.3656 32.7124 32.417 32.4359 32.312 32.1996L31.2095 29.7173C31.918 28.5089 32.4543 27.2155 32.8073 25.8633L35.3405 24.8883C35.5818 24.7955 35.741 24.5636 35.741 24.305V21.9886C35.7411 21.6435 35.4613 21.3636 35.1161 21.3636ZM25.8125 22.6136C25.493 26.6439 22.1114 29.8257 18.0004 29.8257C13.8894 29.8257 10.5078 26.6439 10.1882 22.6136H25.8125ZM34.4911 23.8758L32.0552 24.8135C31.8629 24.8875 31.7194 25.0516 31.6717 25.252C31.3274 26.6987 30.7563 28.0761 29.9743 29.3462C29.8662 29.5217 29.8516 29.7392 29.9353 29.9275L30.9955 32.3148L28.3266 34.9838L25.9403 33.9238C25.7518 33.84 25.5343 33.8547 25.3588 33.9628C24.089 34.745 22.7112 35.3162 21.2636 35.6606C21.0631 35.7083 20.899 35.8517 20.825 36.0441L19.8876 38.4792H16.1132L15.1757 36.0434C15.1017 35.851 14.9375 35.7076 14.7371 35.66C13.2905 35.3157 11.9131 34.7446 10.6429 33.9625C10.4673 33.8544 10.2497 33.8399 10.0615 33.9235L7.67434 34.9838L5.00536 32.3149L6.0652 29.9285C6.14887 29.7402 6.13427 29.5227 6.02614 29.3471C5.24427 28.0777 4.67309 26.6997 4.32848 25.2517C4.28075 25.0514 4.13731 24.8872 3.94497 24.8132L1.50981 23.8759V22.6136H8.9352C9.25747 27.3338 13.1999 31.0757 18.0004 31.0757C22.8009 31.0757 26.7433 27.3339 27.0656 22.6137H34.4911V23.8758ZM20.0621 8.728C19.7169 8.728 19.4371 9.00784 19.4371 9.353V19.6725C19.4371 20.0176 19.7169 20.2975 20.0621 20.2975H22.9241C23.2693 20.2975 23.5491 20.0176 23.5491 19.6725V9.353C23.5491 9.00784 23.2693 8.728 22.9241 8.728H20.0621ZM22.2991 19.0475H20.6871V9.978H22.2991V19.0475ZM26.158 10.6799C25.8129 10.6799 25.533 10.9597 25.533 11.3049V19.6724C25.533 20.0175 25.8129 20.2974 26.158 20.2974H29.0201C29.3653 20.2974 29.6451 20.0175 29.6451 19.6724V11.3049C29.6451 10.9597 29.3653 10.6799 29.0201 10.6799H26.158ZM28.3951 19.0475H26.783V11.93H28.3951V19.0475ZM35.1161 4.97362H32.254C31.9088 4.97362 31.629 5.25347 31.629 5.59862V19.6724C31.629 20.0175 31.9088 20.2974 32.254 20.2974H35.1161C35.4612 20.2974 35.7411 20.0175 35.7411 19.6724V5.59862C35.7411 5.25347 35.4613 4.97362 35.1161 4.97362ZM34.4911 19.0474H32.879V6.22362H34.4911V19.0474ZM13.9661 20.2974H16.8282C17.1733 20.2974 17.4532 20.0175 17.4532 19.6724V14.1817C17.4532 13.8365 17.1733 13.5567 16.8282 13.5567H13.9661C13.621 13.5567 13.3411 13.8365 13.3411 14.1817V19.6724C13.3411 20.0175 13.6209 20.2974 13.9661 20.2974ZM14.5911 14.8067H16.2032V19.0474H14.5911V14.8067ZM14.8993 9.01979C14.6906 8.74487 14.7443 8.35284 15.0192 8.14409L21.1151 3.51542C21.2944 3.37917 21.5332 3.35003 21.74 3.43894L27.4663 5.90128L31.4961 2.23511L30.8431 2.23745C30.8423 2.23745 30.8415 2.23745 30.8408 2.23745C30.4967 2.23745 30.2172 1.95917 30.2158 1.61472C30.2146 1.26948 30.4934 0.988623 30.8386 0.987451L33.1161 0.979248H33.1184C33.305 0.979248 33.4818 1.06261 33.6006 1.20659C33.7198 1.3512 33.7679 1.54159 33.7315 1.7255L33.2899 3.95979C33.2311 4.25753 32.9698 4.46362 32.6775 4.4637C32.6372 4.4637 32.5965 4.45972 32.5556 4.45167C32.217 4.38479 31.9967 4.05604 32.0636 3.71737L32.138 3.34128L28.0098 7.0969C27.8285 7.26175 27.5675 7.3055 27.3424 7.20878L21.5809 4.73128L15.7751 9.13964C15.6622 9.2255 15.5293 9.2669 15.3976 9.2669C15.2089 9.2669 15.0223 9.18175 14.8993 9.01979ZM0.884812 20.2975H12.166C12.3433 20.2975 12.5123 20.2221 12.6308 20.0903C12.7493 19.9584 12.8063 19.7823 12.7874 19.606C12.529 17.1911 10.9364 15.2243 8.78637 14.4012C9.53966 13.76 10.0189 12.8057 10.0189 11.7412C10.0189 9.81495 8.45169 8.24776 6.52544 8.24776C4.59911 8.24776 3.03192 9.81495 3.03192 11.7412C3.03192 12.8057 3.51106 13.7599 4.26442 14.4012C2.11442 15.2242 0.521765 17.1911 0.263328 19.606C0.244422 19.7824 0.301375 19.9584 0.41989 20.0903C0.538406 20.2221 0.707468 20.2975 0.884812 20.2975ZM4.282 11.7411C4.282 10.5041 5.28841 9.49769 6.52552 9.49769C7.76255 9.49769 8.76895 10.5041 8.76895 11.7411C8.76895 12.9777 7.76341 13.9838 6.52708 13.9846C6.52653 13.9846 6.52598 13.9846 6.52544 13.9846C6.52489 13.9846 6.52442 13.9846 6.52387 13.9846C5.28755 13.9838 4.282 12.9778 4.282 11.7411ZM6.5238 15.2346H6.52544H6.52708C8.87497 15.2354 10.8693 16.8318 11.422 19.0475H1.62872C2.18153 16.8317 4.17583 15.2353 6.5238 15.2346Z" fill="#E1FE6E"/>
</svg>
