<svg width="40" height="40" viewBox="0 0 40 40" fill="none" xmlns="http://www.w3.org/2000/svg">
<path d="M29.6611 8.28296C29.316 8.28296 29.0361 8.00342 29.0361 7.65796V5.78296C29.0361 5.4375 29.316 5.15796 29.6611 5.15796C30.0063 5.15796 30.2861 5.4375 30.2861 5.78296V7.65796C30.2861 8.00342 30.0063 8.28296 29.6611 8.28296Z" fill="white"/>
<path d="M26.5652 8.90789C26.3492 8.90789 26.1392 8.7962 26.0232 8.59539L25.0857 6.97185C24.9133 6.67278 25.0155 6.2907 25.3146 6.11797C25.6131 5.94524 25.9951 6.04717 26.1685 6.34685L27.106 7.97039C27.3523 8.37102 27.0308 8.91984 26.5652 8.90789Z" fill="white"/>
<path d="M26.5652 8.90789C26.3492 8.90789 26.1392 8.7962 26.0232 8.59539L25.0857 6.97185C24.9133 6.67278 25.0155 6.2907 25.3146 6.11797C25.6131 5.94524 25.9951 6.04717 26.1685 6.34685L27.106 7.97039C27.3523 8.37102 27.0308 8.91984 26.5652 8.90789Z" fill="white"/>
<path d="M32.7573 8.90786C32.2919 8.91944 31.97 8.37128 32.2165 7.97036C32.2165 7.97036 33.154 6.34683 33.154 6.34683C33.5762 5.64179 34.6355 6.25338 34.2367 6.97185C34.2368 6.97183 33.2993 8.59536 33.2993 8.59536C33.1833 8.79617 32.9733 8.90786 32.7573 8.90786Z" fill="white"/>
<path d="M17.8147 26.408H16.5647C15.3333 26.3859 15.3322 24.555 16.5647 24.533H19.3772C20.1977 24.5199 20.1994 23.2965 19.3772 23.283H17.5022V22.033C17.5022 21.6875 17.2224 21.408 16.8772 21.408C16.532 21.408 16.2522 21.6875 16.2522 22.033V23.3145C13.6021 23.7393 13.8697 27.6065 16.5648 27.658H17.8147C18.3317 27.658 18.7522 28.0785 18.7522 28.5955C18.7522 29.1124 18.3317 29.533 17.8147 29.533H15.0022C14.1817 29.5457 14.1802 30.7697 15.0022 30.783H16.2522V32.033C16.2522 32.3784 16.532 32.658 16.8772 32.658C17.2224 32.658 17.5022 32.3784 17.5022 32.033V30.783C20.5955 31.0162 20.9059 26.5596 17.8147 26.408Z" fill="white"/>
<path d="M22.3283 16.9911C25.1169 16.7707 24.9872 13.0313 22.1896 12.9705H11.5647C8.77256 13.0298 8.63239 16.7695 11.4261 16.9911C1.12854 23.7693 1.42084 38.9968 16.8772 38.9078C32.3353 38.997 32.6242 23.7667 22.3283 16.9911ZM16.8772 37.7633C15.2557 37.7633 13.604 37.5571 12.0802 37.1079C13.9754 34.6931 13.1191 30.8447 10.6271 29.533C9.86446 28.996 7.29414 28.9025 5.63551 28.8705C5.78448 24.067 9.39383 18.5402 14.2424 17.004H19.5121C24.4641 18.573 28.1272 24.3059 28.1272 29.178C28.1272 35.5079 22.3157 37.7633 16.8772 37.7633Z" fill="white"/>
<path d="M11.5648 12.3165H22.1898C24.6998 12.2876 25.1957 8.79087 22.8121 8.07091C24.0056 6.64516 24.01 4.3238 22.7382 3.09124C21.686 1.98057 19.5201 1.92702 18.5417 3.14804C17.0337 0.0575844 12.7097 0.587278 11.8056 3.82565C9.89898 4.22827 9.71034 6.70017 10.7843 8.11982C8.55027 8.97606 9.14793 12.2977 11.5648 12.3165ZM11.5453 5.4057C11.7446 5.10205 12.1776 4.90872 12.4953 5.0822C14.7173 6.46832 17.8499 5.96844 19.4787 3.96954C19.7115 3.68328 20.0792 3.51422 20.5147 3.49163C22.9977 3.4712 22.931 6.83481 21.146 7.9704H12.2085C11.6356 7.30425 11.062 6.16767 11.5453 5.4057Z" fill="white"/>
<path d="M33.127 10.1577H20.002C18.6235 10.1577 17.502 11.2789 17.502 12.6577V20.1577C17.502 21.5365 18.6235 22.6577 20.002 22.6577H22.4675C22.368 23.1216 22.0775 23.5171 21.7146 23.6147C21.4662 23.6819 21.284 23.8943 21.2556 24.15C21.2275 24.4058 21.3591 24.653 21.5873 24.772C23.4908 25.806 25.9099 24.6925 26.5919 22.6577H33.1269C34.5054 22.6577 35.6269 21.5365 35.6269 20.1577V12.6577C35.6269 11.2789 34.5054 10.1577 33.127 10.1577Z" fill="#E4FE7D"/>
<path d="M31.252 14.5327H21.877C21.5318 14.5327 21.252 14.2532 21.252 13.9077C21.252 13.5623 21.5318 13.2827 21.877 13.2827H31.252C32.0706 13.2956 32.0758 14.5188 31.252 14.5327Z" fill="white"/>
<path d="M31.252 17.0327H21.877C21.5318 17.0327 21.252 16.7532 21.252 16.4077C21.252 16.0623 21.5318 15.7827 21.877 15.7827H31.252C32.0706 15.7956 32.0758 17.0188 31.252 17.0327Z" fill="white"/>
<path d="M31.2522 19.5327H25.6272C24.8074 19.5195 24.8044 18.2965 25.6273 18.2827H31.2522C32.0721 18.2959 32.0751 19.5189 31.2522 19.5327Z" fill="white"/>
</svg>
