<svg width="40" height="41" viewBox="0 0 40 41" fill="none" xmlns="http://www.w3.org/2000/svg">
<g clip-path="url(#clip0_222_116)">
<path d="M30.5446 34.7312C30.1473 34.9477 29.7444 35.1711 29.3364 35.3973C25.8841 37.3114 21.9713 39.4809 18.2105 39.1451L4.89242 37.9561C4.87508 37.9546 4.85766 37.9538 4.84023 37.9538H1.17414V31.3629H4.84016C4.97898 31.3629 5.11336 31.3137 5.2193 31.2241C5.22969 31.2154 6.27883 30.3339 7.87602 29.5042C8.16375 29.3547 8.27578 29.0003 8.12641 28.7126C7.97687 28.4249 7.62258 28.3127 7.33477 28.4622C5.98805 29.1618 5.01109 29.8904 4.6325 30.1888H0.587109C0.262891 30.1888 0 30.4517 0 30.7759V38.5409C0 38.8651 0.262812 39.128 0.587109 39.128H4.81398L18.1061 40.3147C18.4063 40.3415 18.7059 40.3543 19.0055 40.3543C22.8173 40.3543 26.5682 38.2747 29.9057 36.4243C30.3112 36.1996 30.7116 35.9776 31.1064 35.7623C31.3911 35.6072 31.4962 35.2506 31.341 34.9659C31.1859 34.6811 30.8295 34.5761 30.5446 34.7312Z" fill="#E1FE6E"/>
<path d="M39.547 28.2282C38.9228 27.4008 37.8352 27.115 36.8965 27.508C36.8725 27.1325 36.7454 26.7668 36.5228 26.455C35.9357 25.6332 34.8197 25.3685 33.9268 25.8391L32.5306 26.575C32.5127 26.2471 32.416 25.9244 32.2435 25.6395C31.6865 24.7186 30.5094 24.3989 29.5637 24.9114L28.5201 25.4772C28.5013 25.0715 28.3639 24.6761 28.1186 24.3422C27.5067 23.5095 26.3987 23.2533 25.4841 23.7331L17.9499 27.6846C17.1026 27.3593 14.4017 26.4796 11.246 27.0671C10.7016 27.1685 10.1407 27.315 9.57885 27.5029C9.27135 27.6057 9.10542 27.9383 9.20815 28.2458C9.31104 28.5533 9.64378 28.7192 9.95112 28.6165C10.4617 28.4458 10.9696 28.3129 11.4608 28.2214C14.8296 27.5942 17.7124 28.8543 17.7403 28.8668C17.816 28.9007 17.898 28.9183 17.981 28.9183H25.8232C26.3803 28.9183 26.8336 29.3729 26.8336 29.9317C26.8336 30.441 26.4536 30.8732 25.9498 30.937L16.0103 32.1959C15.7163 32.2332 15.4961 32.4837 15.4971 32.78C15.4979 33.0764 15.7196 33.3257 16.0139 33.3611L20.2352 33.87C24.3243 34.3627 28.389 33.5651 31.9901 31.5632L37.2652 28.6308C37.7292 28.389 38.2938 28.5167 38.6096 28.9354C39.0041 29.4333 38.8326 30.2319 38.2676 30.5228L32.6077 33.6071C31.931 33.9628 32.511 35.0131 33.1696 34.6382L38.8295 31.5538C39.4031 31.2413 39.8112 30.6955 39.9493 30.0564C40.0875 29.4168 39.9409 28.7504 39.547 28.2282ZM26.0295 24.7729C26.4262 24.5648 26.9068 24.6761 27.1725 25.0375C27.4989 25.4585 27.3507 26.1262 26.8762 26.3685L24.3387 27.7442H20.3644L26.0295 24.7729ZM26.5635 27.8736L30.1233 25.9436C30.517 25.7303 31.0069 25.8637 31.2389 26.2473C31.4918 26.6445 31.3335 27.218 30.9121 27.428L27.8244 29.0553C27.5846 28.5084 27.1278 28.0778 26.5635 27.8736ZM31.4196 30.537C28.1905 32.3321 24.5644 33.0968 20.9008 32.76L26.0974 32.1018C27.0614 31.9797 27.8152 31.2346 27.9757 30.3028L34.4742 26.8778C34.85 26.6797 35.3199 26.7913 35.5673 27.1375C35.8667 27.5354 35.7277 28.1563 35.2864 28.3874L31.4196 30.537Z" fill="#E1FE6E"/>
<path d="M13.6709 16.306C14.3339 16.306 14.9718 16.1625 15.5666 15.8797C15.8595 15.7404 15.984 15.3901 15.8447 15.0973C15.7055 14.8046 15.3554 14.68 15.0623 14.8193C14.6263 15.0266 14.1581 15.1318 13.6709 15.1318C11.8817 15.1318 10.4261 13.6761 10.4261 11.887C10.4261 10.0979 11.8817 8.64231 13.6709 8.64231C15.46 8.64231 16.9156 10.0979 16.9156 11.887C16.9156 12.4348 16.7767 12.976 16.514 13.4521C16.3573 13.736 16.4604 14.0931 16.7443 14.2497C17.0283 14.4064 17.3854 14.3033 17.542 14.0194C17.9003 13.37 18.0898 12.6327 18.0898 11.8869C18.0898 9.45028 16.1074 7.46802 13.6709 7.46802C11.2343 7.46802 9.25195 9.45028 9.25195 11.8869C9.25195 14.3236 11.2343 16.306 13.6709 16.306Z" fill="#E1FE6E"/>
<path d="M4.50453 13.6327L5.72133 13.8156C5.92 14.6399 6.24352 15.4207 6.6868 16.1452L5.95531 17.1354C5.60969 17.6034 5.65742 18.2415 6.06883 18.6528L6.90648 19.4905C7.31781 19.9018 7.95602 19.9496 8.42391 19.6039L9.41406 18.8725C10.1386 19.3158 10.9193 19.6394 11.7437 19.8381L11.9266 21.0549C12.0131 21.6301 12.4981 22.0476 13.0798 22.0476H14.2644C14.8461 22.0476 15.3311 21.6301 15.4175 21.0548L15.6004 19.8381C16.4248 19.6394 17.2055 19.3158 17.93 18.8725L18.9202 19.604C19.3881 19.9496 20.0263 19.9019 20.4376 19.4906L21.2752 18.6529C21.6866 18.2417 21.7344 17.6035 21.3888 17.1355L20.6573 16.1453C21.1006 15.4208 21.4242 14.6401 21.6228 13.8157L22.8395 13.6328C23.4148 13.5464 23.8323 13.0614 23.8323 12.4796V12.4743H27.3164V19.9573C27.3164 20.7122 27.9306 21.3264 28.6855 21.3264H31.1937C31.4622 22.5232 32.5325 23.4203 33.8091 23.4203C35.2873 23.4203 36.4901 22.2176 36.4901 20.7392C36.4901 19.261 35.2874 18.0582 33.8091 18.0582C32.5324 18.0582 31.4621 18.9554 31.1936 20.1522H28.6855C28.578 20.1522 28.4905 20.0648 28.4905 19.9573V12.4743H31.1936C31.4621 13.6711 32.5324 14.5683 33.8091 14.5683C35.2873 14.5683 36.4901 13.3657 36.4901 11.8873C36.4901 10.4089 35.2874 9.20628 33.8091 9.20628C32.5325 9.20628 31.4622 10.1034 31.1936 11.3001H28.4907V3.81729C28.4907 3.70979 28.5781 3.62237 28.6856 3.62237H31.1938C31.4623 4.81917 32.5326 5.71628 33.8092 5.71628C35.2875 5.71628 36.4902 4.51362 36.4902 3.03526C36.4902 1.5569 35.2874 0.354248 33.8091 0.354248C32.5326 0.354248 31.4623 1.25136 31.1937 2.44815H28.6855C27.9306 2.44815 27.3164 3.06229 27.3164 3.81722V11.3H23.8323V11.2949C23.8323 10.7132 23.4148 10.2282 22.8396 10.1417L21.6228 9.95886C21.4241 9.13448 21.1006 8.35378 20.6573 7.62925L21.3888 6.63909C21.7344 6.17112 21.6867 5.53292 21.2753 5.12167L20.4377 4.28394C20.0264 3.87261 19.3882 3.82495 18.9202 4.1705L17.9301 4.9019C17.2055 4.45862 16.4248 4.13503 15.6005 3.93644L15.4176 2.71964C15.3312 2.1444 14.8462 1.72683 14.2645 1.72683H13.0798C12.4981 1.72683 12.0131 2.14433 11.9266 2.71964L11.7437 3.93644C10.9194 4.13511 10.1387 4.45862 9.41406 4.9019L8.42391 4.1705C7.95609 3.82487 7.31781 3.87253 6.90648 4.28394L6.06883 5.12151C5.65742 5.53284 5.60969 6.17104 5.95531 6.63894L6.68672 7.62909C6.24344 8.35362 5.91984 9.1344 5.72125 9.9587L4.50445 10.1416C3.92922 10.2281 3.51172 10.7131 3.51172 11.2947V12.4793C3.51172 13.0613 3.9293 13.5462 4.50453 13.6327ZM33.8091 19.2323C34.64 19.2323 35.3159 19.9082 35.3159 20.7391C35.3159 21.57 34.64 22.2459 33.8091 22.2459C32.9783 22.2459 32.3023 21.57 32.3023 20.7391C32.3023 19.9082 32.9783 19.2323 33.8091 19.2323ZM33.8091 10.3803C34.64 10.3803 35.3159 11.0563 35.3159 11.8871C35.3159 12.718 34.64 13.3939 33.8091 13.3939C32.9783 13.3939 32.3023 12.718 32.3023 11.8871C32.3023 11.0563 32.9783 10.3803 33.8091 10.3803ZM33.8091 1.52839C34.64 1.52839 35.3159 2.20433 35.3159 3.03519C35.3159 3.86604 34.64 4.54198 33.8091 4.54198C32.9783 4.54198 32.3023 3.86604 32.3023 3.03519C32.3023 2.2044 32.9783 1.52839 33.8091 1.52839ZM4.68586 11.3017L6.29734 11.0595C6.54453 11.0224 6.74109 10.8328 6.78711 10.5871C6.96602 9.633 7.33539 8.74183 7.88477 7.93831C8.02578 7.73206 8.02086 7.45909 7.87234 7.25808L6.90391 5.9469L7.7318 5.11909L9.04297 6.08761C9.24391 6.23604 9.5168 6.24104 9.72312 6.10003C10.5267 5.55058 11.4179 5.18128 12.372 5.0023C12.6176 4.95628 12.8071 4.75972 12.8443 4.51253L13.0866 2.90104H14.2573L14.4996 4.51253C14.5368 4.75972 14.7263 4.95628 14.972 5.0023C15.926 5.1812 16.8173 5.55058 17.6208 6.10003C17.8271 6.24112 18.1 6.23604 18.301 6.08761L19.6122 5.11909L20.4401 5.9469L19.4716 7.25815C19.3232 7.45909 19.3182 7.73206 19.4592 7.93839C20.0087 8.7419 20.378 9.63308 20.557 10.5873C20.603 10.8329 20.7996 11.0225 21.0467 11.0596L22.6582 11.3019V12.4727L21.0467 12.715C20.7996 12.7521 20.603 12.9417 20.557 13.1873C20.378 14.1415 20.0087 15.0327 19.4592 15.8362C19.3182 16.0425 19.3231 16.3154 19.4716 16.5164L20.4402 17.8275L19.6123 18.6554L18.3011 17.6869C18.1002 17.5385 17.8272 17.5335 17.6209 17.6746C16.8173 18.224 15.9262 18.5933 14.972 18.7723C14.7263 18.8184 14.5368 19.015 14.4996 19.2621L14.2573 20.8735H13.0866L12.8443 19.2621C12.8071 19.015 12.6176 18.8184 12.372 18.7723C11.4177 18.5933 10.5266 18.224 9.72305 17.6746C9.5168 17.5335 9.24391 17.5385 9.04289 17.6869L7.73172 18.6554L6.90383 17.8275L7.87234 16.5164C8.02078 16.3154 8.02578 16.0424 7.88477 15.8362C7.33531 15.0327 6.96602 14.1415 6.78711 13.1874C6.74102 12.9417 6.54453 12.7521 6.29734 12.715L4.68586 12.4728V11.3017Z" fill="#E1FE6E"/>
</g>
<defs>
<clipPath id="clip0_222_116">
<rect width="40" height="40" fill="white" transform="translate(0 0.354248)"/>
</clipPath>
</defs>
</svg>
