<svg width="40" height="40" viewBox="0 0 40 40" fill="none" xmlns="http://www.w3.org/2000/svg">
<path d="M29.6611 8.28284C29.316 8.28284 29.0361 8.00329 29.0361 7.65784V5.78284C29.0361 5.43738 29.316 5.15784 29.6611 5.15784C30.0063 5.15784 30.2861 5.43738 30.2861 5.78284V7.65784C30.2861 8.00329 30.0063 8.28284 29.6611 8.28284Z" fill="#1A1B13"/>
<path d="M26.5652 8.90783C26.3492 8.90783 26.1392 8.79614 26.0232 8.59533L25.0857 6.97179C24.9133 6.67272 25.0155 6.29064 25.3146 6.11791C25.6131 5.94518 25.9951 6.04711 26.1685 6.34679L27.106 7.97033C27.3523 8.37096 27.0308 8.91978 26.5652 8.90783Z" fill="#1A1B13"/>
<path d="M26.5652 8.90783C26.3492 8.90783 26.1392 8.79614 26.0232 8.59533L25.0857 6.97179C24.9133 6.67272 25.0155 6.29064 25.3146 6.11791C25.6131 5.94518 25.9951 6.04711 26.1685 6.34679L27.106 7.97033C27.3523 8.37096 27.0308 8.91978 26.5652 8.90783Z" fill="#1A1B13"/>
<path d="M32.7578 8.90786C32.2924 8.91944 31.9705 8.37128 32.217 7.97036C32.217 7.97036 33.1545 6.34683 33.1545 6.34683C33.5766 5.64179 34.636 6.25338 34.2372 6.97185C34.2372 6.97183 33.2997 8.59536 33.2997 8.59536C33.1838 8.79617 32.9738 8.90786 32.7578 8.90786Z" fill="#1A1B13"/>
<path d="M17.8142 26.4078H16.5642C15.3328 26.3858 15.3317 24.5549 16.5642 24.5328H19.3767C20.1972 24.5197 20.1989 23.2964 19.3767 23.2828H17.5017V22.0328C17.5017 21.6874 17.2219 21.4078 16.8767 21.4078C16.5316 21.4078 16.2517 21.6874 16.2517 22.0328V23.3144C13.6016 23.7392 13.8693 27.6063 16.5643 27.6578H17.8142C18.3312 27.6578 18.7517 28.0784 18.7517 28.5953C18.7517 29.1123 18.3312 29.5328 17.8142 29.5328H15.0017C14.1812 29.5456 14.1797 30.7696 15.0017 30.7828H16.2517V32.0328C16.2517 32.3783 16.5316 32.6578 16.8767 32.6578C17.2219 32.6578 17.5017 32.3783 17.5017 32.0328V30.7828C20.595 31.016 20.9054 26.5595 17.8142 26.4078Z" fill="#1A1B13"/>
<path d="M22.3283 16.991C25.1169 16.7706 24.9872 13.0312 22.1896 12.9703H11.5647C8.77256 13.0297 8.63239 16.7694 11.4261 16.991C1.12854 23.7692 1.42084 38.9967 16.8772 38.9077C32.3353 38.9969 32.6242 23.7666 22.3283 16.991ZM16.8772 37.7632C15.2557 37.7632 13.604 37.5569 12.0802 37.1077C13.9754 34.693 13.1191 30.8446 10.6271 29.5329C9.86446 28.9958 7.29414 28.9024 5.63551 28.8703C5.78448 24.0669 9.39383 18.5401 14.2424 17.0039H19.5121C24.4641 18.5729 28.1272 24.3058 28.1272 29.1779C28.1272 35.5078 22.3157 37.7632 16.8772 37.7632Z" fill="#1A1B13"/>
<path d="M11.5648 12.3164H22.1898C24.6998 12.2875 25.1957 8.79081 22.8121 8.07085C24.0056 6.6451 24.01 4.32374 22.7382 3.09118C21.686 1.9805 19.5201 1.92695 18.5417 3.14798C17.0337 0.0575234 12.7097 0.587217 11.8056 3.82559C9.89898 4.2282 9.71034 6.70011 10.7843 8.11975C8.55027 8.976 9.14793 12.2976 11.5648 12.3164ZM11.5453 5.40564C11.7446 5.10199 12.1776 4.90866 12.4953 5.08214C14.7173 6.46826 17.8499 5.96838 19.4787 3.96948C19.7115 3.68322 20.0792 3.51415 20.5147 3.49157C22.9977 3.47114 22.931 6.83475 21.146 7.97034H12.2085C11.6356 7.30419 11.062 6.1676 11.5453 5.40564Z" fill="#1A1B13"/>
<path d="M33.127 10.1578H20.002C18.6235 10.1578 17.502 11.2791 17.502 12.6578V20.1578C17.502 21.5366 18.6235 22.6578 20.002 22.6578H22.4675C22.368 23.1217 22.0775 23.5172 21.7146 23.6149C21.4662 23.682 21.284 23.8944 21.2556 24.1501C21.2275 24.4059 21.3591 24.6531 21.5873 24.7721C23.4908 25.8061 25.9099 24.6926 26.5919 22.6578H33.1269C34.5054 22.6578 35.6269 21.5366 35.6269 20.1578V12.6578C35.6269 11.2791 34.5054 10.1578 33.127 10.1578Z" fill="#1A1B13"/>
<path d="M31.252 14.5328H21.877C21.5318 14.5328 21.252 14.2533 21.252 13.9078C21.252 13.5624 21.5318 13.2828 21.877 13.2828H31.252C32.0706 13.2957 32.0758 14.5189 31.252 14.5328Z" fill="#1A1B13"/>
<path d="M31.252 17.0328H21.877C21.5318 17.0328 21.252 16.7533 21.252 16.4078C21.252 16.0624 21.5318 15.7828 21.877 15.7828H31.252C32.0706 15.7957 32.0758 17.0189 31.252 17.0328Z" fill="#1A1B13"/>
<path d="M31.2517 19.5328H25.6267C24.8069 19.5196 24.8039 18.2966 25.6268 18.2828H31.2517C32.0716 18.296 32.0746 19.519 31.2517 19.5328Z" fill="#1A1B13"/>
</svg>
