<svg width="94" height="62" viewBox="0 0 94 62" fill="none" xmlns="http://www.w3.org/2000/svg">
<path d="M32.8638 30.6957L37.7842 10.4289C37.9624 9.69777 38.7348 9.24041 39.5089 9.40703C40.2831 9.57535 40.7674 10.3031 40.5909 11.0359L35.6706 31.3027C35.5175 31.9318 34.9252 32.3586 34.2699 32.3586C34.1637 32.3586 34.0556 32.3467 33.9476 32.3246C33.1699 32.1562 32.6874 31.4268 32.8638 30.6957ZM16.7956 22.05L28.5789 28.2678C28.8004 28.3851 29.0416 28.4412 29.2793 28.4412C29.7834 28.4412 30.2731 28.1896 30.5377 27.7441C30.9248 27.0895 30.6764 26.2615 29.9832 25.8943L20.4485 20.8632L29.9832 15.8322C30.6764 15.4667 30.9248 14.6387 30.5377 13.9824C30.1507 13.3278 29.2739 13.0932 28.5789 13.4587L16.7956 19.6765C16.3401 19.9162 16.0592 20.3702 16.0592 20.8632C16.0574 21.3563 16.3401 21.8103 16.7956 22.05ZM42.9206 27.7441C43.1835 28.1896 43.6732 28.4412 44.1791 28.4412C44.4167 28.4412 44.658 28.3851 44.8794 28.2678L56.6628 22.05C57.1182 21.8103 57.3991 21.3563 57.3991 20.8632C57.3991 20.3702 57.1164 19.9162 56.6628 19.6765L44.8794 13.4587C44.1845 13.0932 43.3095 13.3278 42.9206 13.9824C42.5335 14.637 42.782 15.465 43.4751 15.8322L53.0098 20.8632L43.4751 25.8943C42.782 26.2598 42.5335 27.0878 42.9206 27.7441ZM93.0534 38.3638V43.1313C93.0534 43.7196 92.6519 44.2416 92.0596 44.4235L88.9198 45.3875C88.5147 46.7681 87.9332 48.0926 87.1843 49.3372L88.6858 52.1188C88.9702 52.6441 88.8622 53.2817 88.4193 53.6983L84.8546 57.0648C84.4135 57.483 83.7384 57.5833 83.1821 57.3164L80.2385 55.8984C78.917 56.6091 77.5145 57.1583 76.0508 57.5391L75.8078 58.2396L75.0336 60.4993C74.841 61.0603 74.2883 61.4395 73.6636 61.4395H68.6171C67.9924 61.4395 67.4397 61.0603 67.2471 60.4993L66.2299 57.5391C64.7662 57.1583 63.3619 56.6091 62.0422 55.8984L59.0986 57.3164C58.5423 57.585 57.8672 57.483 57.4261 57.0648L53.8614 53.6983C53.4725 53.331 53.3429 52.7938 53.5103 52.3109H44.6003L47.0308 58.7208H51.7946C52.5903 58.7208 53.2331 59.3295 53.2331 60.0793C53.2331 60.8291 52.5885 61.4378 51.7946 61.4378H46.028C46.0244 61.4378 46.0208 61.4378 46.0172 61.4378C46.0154 61.4378 46.0136 61.4378 46.0118 61.4378H27.4447C27.4429 61.4378 27.4411 61.4378 27.4393 61.4378C27.4357 61.4378 27.4321 61.4378 27.4285 61.4378H21.662C20.8662 61.4378 20.2235 60.8291 20.2235 60.0793C20.2235 59.3295 20.868 58.7208 21.662 58.7208H26.4257L28.8562 52.3109H6.82699C3.54493 52.3109 0.875 49.7911 0.875 46.6916V5.82122C0.875 2.72509 3.54493 0.207031 6.82519 0.207031H66.6313C69.9134 0.207031 72.5815 2.72509 72.5815 5.82122V20.0539H73.6636C74.2883 20.0539 74.841 20.4331 75.0336 20.9942L76.0508 23.956C77.5145 24.3385 78.917 24.8877 80.2367 25.595L83.1839 24.1804C83.7402 23.9135 84.4135 24.0155 84.8528 24.4304L88.4193 27.7934C88.8622 28.21 88.9684 28.8476 88.6858 29.373L87.1843 32.1528C87.9386 33.4059 88.5201 34.7304 88.9216 36.1059L89.6634 36.3354L92.056 37.0665C92.6501 37.2519 93.0534 37.7738 93.0534 38.3638ZM3.75378 5.82122V38.8059H49.2309V38.3621C49.2309 37.7721 49.6323 37.2502 50.2265 37.0682L53.3627 36.1076C53.7678 34.7253 54.3493 33.4008 55.1 32.1545L53.5985 29.373C53.3141 28.8476 53.4221 28.21 53.865 27.7934L57.4315 24.4304C57.8726 24.0138 58.5459 23.9135 59.1004 24.1787L62.0476 25.5933C63.3673 24.886 64.7698 24.3368 66.2335 23.9543L66.4765 23.2521L67.2507 20.9925C67.4433 20.4314 67.996 20.0522 68.6207 20.0522H69.7082V5.81952C69.7082 4.223 68.3291 2.92232 66.6367 2.92232H6.82699C5.13285 2.92572 3.75378 4.2247 3.75378 5.82122ZM6.82699 49.5939H54.9614L55.1 49.3372C54.3511 48.0909 53.7696 46.7681 53.3645 45.3875L50.2247 44.4235C49.6323 44.2416 49.2309 43.7196 49.2309 43.1313V41.5263H3.75378V46.6933C3.75378 48.2915 5.13285 49.5939 6.82699 49.5939ZM41.5469 52.3109H31.9132L29.4827 58.7208H43.9774L41.5469 52.3109ZM90.1747 39.3517L87.2725 38.459C86.7918 38.3094 86.4299 37.9337 86.3165 37.4678C85.9312 35.8679 85.2615 34.3411 84.3217 32.9299C84.0516 32.5252 84.0282 32.0168 84.2587 31.5901L85.645 29.0193L83.5565 27.0504L80.8344 28.3579C80.3825 28.5755 79.8442 28.5517 79.4157 28.2984C77.9322 27.4177 76.3155 26.7852 74.6069 26.4145C74.1154 26.3074 73.7194 25.9657 73.5609 25.5134L72.6157 22.7726H69.6631L68.718 25.5134C68.5613 25.9657 68.1635 26.3074 67.672 26.4145C65.9652 26.7852 64.3467 27.4194 62.8632 28.2984C62.4347 28.5534 61.8964 28.5755 61.4445 28.3579L58.7224 27.0504L56.6339 29.0193L58.0202 31.5901C58.2507 32.0168 58.2255 32.5252 57.9572 32.9299C57.0264 34.3309 56.3549 35.8577 55.9624 37.4712C55.849 37.9354 55.4871 38.3094 55.0082 38.459L52.106 39.3517V42.1435L55.0046 43.0327C55.4853 43.1806 55.8508 43.5547 55.9642 44.0205C56.3567 45.6324 57.0282 47.1609 57.959 48.5619C58.2291 48.9665 58.2525 49.4749 58.022 49.9017L57.1308 51.5526C57.12 51.573 57.1092 51.5951 57.0966 51.6155L56.6339 52.4741L58.7224 54.4464L61.4445 53.1372C61.8964 52.9196 62.4365 52.9434 62.865 53.1984C64.3467 54.0808 65.9616 54.715 67.6665 55.0806C68.1599 55.186 68.5577 55.5294 68.7162 55.9834L69.6614 58.7242H72.6139L73.5591 55.9834C73.7158 55.5294 74.1154 55.1877 74.6087 55.0806C76.3137 54.715 77.9286 54.0825 79.4103 53.1984C79.8388 52.9434 80.3789 52.9196 80.8308 53.1372L83.5529 54.4464L85.6413 52.4741L84.2551 49.9034C84.0246 49.4766 84.0498 48.9682 84.3181 48.5636C85.2489 47.1626 85.9204 45.6358 86.3129 44.0222C86.4263 43.5564 86.79 43.1806 87.2725 43.0344L90.1711 42.1452V39.3517H90.1747ZM80.0386 40.7493C80.0386 45.3807 76.049 49.1502 71.143 49.1502C66.2353 49.1502 62.2421 45.3824 62.2421 40.7493C62.2421 36.1144 66.2353 32.3433 71.143 32.3433C76.049 32.3433 80.0386 36.1144 80.0386 40.7493ZM77.1617 40.7493C77.1617 37.614 74.4629 35.062 71.1449 35.062C67.825 35.062 65.1226 37.614 65.1226 40.7493C65.1226 43.8828 67.825 46.4315 71.1449 46.4315C74.4611 46.4315 77.1617 43.8828 77.1617 40.7493Z" fill="#E1FE6E"/>
</svg>
