<svg width="40" height="40" viewBox="0 0 40 40" fill="none" xmlns="http://www.w3.org/2000/svg">
<path d="M25.8834 18.2848C25.6927 17.65 25.1193 17.2234 24.4564 17.2234H20.6787C20.5774 17.2234 20.4867 17.1593 20.4525 17.0647L19.226 13.6363C18.7979 12.3347 16.8484 12.3335 16.4203 13.6364C16.4203 13.6363 15.1938 17.0647 15.1938 17.0647C15.1596 17.1593 15.0689 17.2234 14.9676 17.2234H11.1898C9.74344 17.1916 9.14048 19.1857 10.3693 19.9578C10.3692 19.9578 13.2773 21.8755 13.2773 21.8755C13.37 21.9371 13.4088 22.0531 13.3716 22.1575L12.2274 25.3545C11.7189 26.6631 13.3019 27.9043 14.451 27.1C14.451 27.1001 17.6913 24.962 17.6913 24.962C17.771 24.9095 17.8744 24.9089 17.9553 24.9626L21.1953 27.1001C22.3262 27.9109 23.9398 26.6472 23.4188 25.3544C23.4189 25.3545 22.2747 22.1575 22.2747 22.1575C22.2375 22.0531 22.2763 21.9371 22.3687 21.8761L25.2774 19.9571C25.8307 19.5922 26.0742 18.9195 25.8834 18.2848Z" fill="#E4FE7D"/>
<path d="M23.5352 34.3306C23.7094 34.3958 23.9133 34.425 24.1182 34.4315L23.5352 34.3306Z" fill="white"/>
<path d="M18.5548 33.5975C18.1376 32.876 18.0266 32.0345 18.2423 31.2282C11.9026 31.5194 6.55779 26.3324 6.57329 19.9995C6.57328 13.7964 11.62 8.74945 17.8233 8.74945C24.6789 8.68265 30.1265 15.0964 28.9082 21.8462L29.6427 21.4222C29.8339 19.6891 31.6215 18.5531 33.1959 18.1727C32.9345 17.8129 32.5913 17.5011 32.1653 17.2645C31.3151 16.8157 31.005 15.6526 31.5159 14.8395C32.7569 12.8765 31.183 10.2078 28.8343 10.3035C27.8914 10.3407 27.0155 9.48795 27.0594 8.52848C27.1581 6.22221 24.4379 4.65703 22.4695 5.94068C21.6557 6.45252 20.4934 6.13978 20.0447 5.29117C18.9774 3.24354 15.8374 3.24905 14.7761 5.34498C14.3278 6.19509 13.1635 6.50591 12.3509 5.9943C10.4374 4.75338 7.69519 6.33542 7.81387 8.6128C7.88678 9.60197 7.02223 10.4753 6.03981 10.4505C3.72144 10.3473 2.16128 13.1238 3.45164 15.0409C3.96409 15.8545 3.65176 17.0169 2.80221 17.4659C0.753943 18.5341 0.761249 21.6717 2.85602 22.7344C3.70553 23.1829 4.01729 24.3461 3.50533 25.1594C2.26114 27.0762 3.85158 29.8027 6.12079 29.696C7.10768 29.6366 8.00016 30.4785 7.96212 31.4704C7.84327 33.7443 10.5844 35.3322 12.4953 34.0918C13.3119 33.5387 14.5167 33.8344 14.9769 34.7077C15.9753 36.6419 18.9133 36.773 20.0796 34.9138C19.4416 34.6529 18.9046 34.2038 18.5548 33.5975Z" fill="white"/>
<path d="M38.4577 25.5708L35.4578 20.3748C34.9393 19.4329 33.6464 19.0858 32.7256 19.6424C32.7256 19.6424 31.8595 20.1423 31.8595 20.1423C31.1346 20.5607 30.7734 21.3679 30.8813 22.1504L22.6334 26.9123C22.5068 26.9856 22.4097 27.1009 22.3594 27.2382L21.4244 29.7802C21.406 29.7865 20.3236 30.4115 20.3236 30.4115C18.2147 31.7136 20.0156 34.8341 22.1986 33.6591C22.1986 33.6591 23.281 33.0341 23.281 33.0341C23.2959 33.021 25.9644 33.4828 25.9644 33.4828C26.1078 33.5077 26.2566 33.4813 26.3834 33.4083L32.8786 29.6583L33.5035 30.7404L30.7975 32.3029C30.0918 32.727 30.7069 33.7845 31.4225 33.3857C31.4225 33.3857 34.6699 31.5107 34.6699 31.5107C34.9689 31.338 35.0712 30.9559 34.8988 30.6568L33.9613 29.0332L34.6297 28.6474C35.2525 29.1436 36.1685 29.2128 36.8595 28.8032C36.8595 28.8032 37.7259 28.3027 37.7259 28.3027C38.6802 27.7509 39.0085 26.5254 38.4577 25.5708ZM25.9543 32.2126L23.2593 31.7463L22.5101 30.4487L23.4543 27.8816L31.3773 23.3076C31.5963 23.6868 33.6041 27.1648 33.8773 27.638L25.9543 32.2126Z" fill="white"/>
</svg>
