<svg width="40" height="41" viewBox="0 0 40 41" fill="none" xmlns="http://www.w3.org/2000/svg">
<path d="M22.5334 22.4721H18.1666C17.8214 22.4721 17.5416 22.7519 17.5416 23.0971V37.035C17.5416 37.3801 17.8214 37.66 18.1666 37.66H22.5334C22.8785 37.66 23.1584 37.3801 23.1584 37.035V23.0971C23.1584 22.7519 22.8786 22.4721 22.5334 22.4721ZM21.9084 36.41H18.7916V23.7221H21.9084V36.41ZM30.6418 24.2921H26.275C25.9298 24.2921 25.65 24.5719 25.65 24.9171V37.035C25.65 37.3801 25.9298 37.66 26.275 37.66H30.6418C30.987 37.66 31.2668 37.3801 31.2668 37.035V24.9171C31.2668 24.5719 30.987 24.2921 30.6418 24.2921ZM30.0168 36.41H26.9V25.5421H30.0168V36.41ZM38.75 16.744H34.3833C34.0381 16.744 33.7583 17.0238 33.7583 17.369V37.035C33.7583 37.3801 34.0381 37.66 34.3833 37.66H38.75C39.0952 37.66 39.375 37.3801 39.375 37.035V17.369C39.375 17.0238 39.0952 16.744 38.75 16.744ZM38.125 36.4099H35.0083V17.994H38.125V36.4099ZM14.425 27.8786H10.0583C9.71313 27.8786 9.43328 28.1584 9.43328 28.5036V37.0349C9.43328 37.3801 9.71313 37.6599 10.0583 37.6599H14.425C14.7702 37.6599 15.05 37.3801 15.05 37.0349V28.5036C15.05 28.1584 14.7702 27.8786 14.425 27.8786ZM13.8 36.4099H10.6833V29.1286H13.8V36.4099ZM33.3045 12.4024C33.2744 12.0586 33.5287 11.7554 33.8726 11.7251L36.5121 11.4937C36.6986 11.4773 36.883 11.5455 37.0139 11.6797C37.1448 11.8137 37.2087 11.9995 37.1878 12.1858L36.8934 14.819C36.8577 15.1384 36.5871 15.3746 36.273 15.3746C36.2498 15.3746 36.2264 15.3733 36.2028 15.3706C35.8598 15.3322 35.6128 15.0231 35.6512 14.6801L35.746 13.8315L28.9023 20.7338C28.7362 20.9013 28.4901 20.9611 28.2658 20.8883L20.4726 18.3626L12.6257 24.4726C12.5116 24.5615 12.3764 24.6045 12.2421 24.6045C12.056 24.6045 11.8718 24.5217 11.7486 24.3635C11.5366 24.0912 11.5854 23.6984 11.8577 23.4863L19.9661 17.1727C20.1297 17.0454 20.3458 17.0075 20.5427 17.0713L28.2854 19.5807L34.9212 12.8881L33.9817 12.9705C33.638 13.0002 33.3347 12.7462 33.3045 12.4024ZM18.2646 12.6092C18.2646 12.264 18.5445 11.9842 18.8896 11.9842H20.0396C20.3848 11.9842 20.6646 12.264 20.6646 12.6092C20.6646 12.9544 20.3848 13.2342 20.0396 13.2342H18.8896C18.5445 13.2342 18.2646 12.9544 18.2646 12.6092ZM21.8062 12.6092C21.8062 12.264 22.086 11.9842 22.4312 11.9842H31.3799C31.7251 11.9842 32.0049 12.264 32.0049 12.6092C32.0049 12.9544 31.7251 13.2342 31.3799 13.2342H22.4312C22.086 13.2342 21.8062 12.9544 21.8062 12.6092ZM18.2646 9.41725C18.2646 9.07209 18.5445 8.79225 18.8896 8.79225H20.0396C20.3848 8.79225 20.6646 9.07209 20.6646 9.41725C20.6646 9.7624 20.3848 10.0422 20.0396 10.0422H18.8896C18.5445 10.0422 18.2646 9.7624 18.2646 9.41725ZM21.8062 9.41725C21.8062 9.07209 22.086 8.79225 22.4312 8.79225H31.3799C31.7251 8.79225 32.0049 9.07209 32.0049 9.41725C32.0049 9.7624 31.7251 10.0422 31.3799 10.0422H22.4312C22.086 10.0422 21.8062 9.7624 21.8062 9.41725ZM18.2646 6.22521C18.2646 5.88006 18.5445 5.60021 18.8896 5.60021H20.0396C20.3848 5.60021 20.6646 5.88006 20.6646 6.22521C20.6646 6.57037 20.3848 6.85021 20.0396 6.85021H18.8896C18.5445 6.85021 18.2646 6.57037 18.2646 6.22521ZM21.8062 6.22521C21.8062 5.88006 22.086 5.60021 22.4312 5.60021H31.3799C31.7251 5.60021 32.0049 5.88006 32.0049 6.22521C32.0049 6.57037 31.7251 6.85021 31.3799 6.85021H22.4312C22.086 6.85021 21.8062 6.57037 21.8062 6.22521ZM14.488 12.3237C14.488 11.9786 14.2082 11.6987 13.863 11.6987H8.18148V6.01725C8.18148 5.67209 7.90164 5.39225 7.55648 5.39225C3.73453 5.39225 0.625 8.50178 0.625 12.3237C0.625 16.1457 3.73445 19.2553 7.55648 19.2553C11.3786 19.2553 14.488 16.1458 14.488 12.3237ZM7.55648 18.0053C4.42375 18.0053 1.875 15.4565 1.875 12.3237C1.875 9.40201 4.09156 6.98834 6.93148 6.67639V12.3237C6.93148 12.6689 7.21133 12.9487 7.55648 12.9487H13.2039C12.8919 15.7887 10.4782 18.0053 7.55648 18.0053ZM9.90031 10.6049H16.2069C16.552 10.6049 16.8319 10.3251 16.8319 9.9799C16.8319 6.15787 13.7224 3.04834 9.90031 3.04834C9.55516 3.04834 9.27531 3.32818 9.27531 3.67334V9.9799C9.27531 10.3251 9.55516 10.6049 9.90031 10.6049ZM10.5253 4.33248C13.1601 4.62201 15.2583 6.72014 15.5477 9.3549H10.5253V4.33248Z" fill="#E1FE6E"/>
</svg>
