<svg width="21" height="21" viewBox="0 0 21 21" fill="none" xmlns="http://www.w3.org/2000/svg">
<path d="M15.346 10.9999C15.2312 12.1129 14.738 13.1527 13.9489 13.9459C13.1597 14.739 12.1224 15.2375 11.01 15.3579C10.9876 15.3576 10.9654 15.3618 10.9446 15.3703C10.9239 15.3787 10.905 15.3913 10.8892 15.4071C10.8734 15.4229 10.8608 15.4418 10.8524 15.4625C10.8439 15.4833 10.8397 15.5055 10.84 15.5279V19.1659C10.84 19.2561 10.8042 19.3426 10.7404 19.4063C10.6767 19.4701 10.5902 19.5059 10.5 19.5059C10.4098 19.5059 10.3233 19.4701 10.2596 19.4063C10.1958 19.3426 10.16 19.2561 10.16 19.1659V17.8459C10.1568 17.8019 10.1378 17.7605 10.1066 17.7293C10.0754 17.6981 10.034 17.6791 9.99 17.6759C8.47783 17.5535 7.04347 16.9545 5.89339 15.9651C4.74331 14.9757 3.93682 13.6468 3.59 12.1699C3.57709 12.1261 3.57312 12.0802 3.57832 12.0349C3.58353 11.9896 3.5978 11.9458 3.6203 11.9061C3.64279 11.8664 3.67304 11.8316 3.70925 11.8039C3.74546 11.7761 3.78688 11.7559 3.83106 11.7445C3.87523 11.7331 3.92125 11.7307 3.96637 11.7374C4.01149 11.7442 4.0548 11.7599 4.0937 11.7838C4.13261 11.8076 4.16632 11.839 4.19283 11.8761C4.21933 11.9133 4.2381 11.9554 4.248 11.9999C4.55633 13.3256 5.27529 14.5202 6.30238 15.4133C7.32948 16.3065 8.6123 16.8526 9.968 16.9739C10.012 16.9959 10.054 16.9739 10.096 16.9319C10.1182 16.9194 10.1362 16.9005 10.1476 16.8777C10.159 16.8549 10.1633 16.8292 10.16 16.8039V15.5279C10.1603 15.5055 10.1561 15.4833 10.1476 15.4625C10.1392 15.4418 10.1266 15.4229 10.1108 15.4071C10.095 15.3913 10.0761 15.3787 10.0554 15.3703C10.0346 15.3618 10.0124 15.3576 9.99 15.3579C8.88294 15.2346 7.84989 14.7413 7.058 13.9579C6.26627 13.1622 5.77201 12.1186 5.658 11.0019C5.65151 10.961 5.63099 10.9237 5.59997 10.8963C5.56894 10.869 5.52935 10.8532 5.488 10.8519H1.85C1.75717 10.8519 1.66815 10.815 1.60251 10.7494C1.53687 10.6837 1.5 10.5947 1.5 10.5019C1.5 10.4091 1.53687 10.32 1.60251 10.2544C1.66815 10.1888 1.75717 10.1519 1.85 10.1519H3.232C3.27324 10.1502 3.31263 10.1343 3.34358 10.107C3.37453 10.0797 3.39516 10.0426 3.402 10.0019C3.49275 8.49197 4.05377 7.04831 5.00639 5.87331C5.95902 4.69832 7.25547 3.85091 8.714 3.4499C8.80233 3.43313 8.89372 3.4508 8.96943 3.49927C9.04515 3.54774 9.09945 3.62335 9.12119 3.71059C9.14294 3.79782 9.13048 3.89007 9.08637 3.96841C9.04227 4.04675 8.96986 4.10524 8.884 4.1319C7.57913 4.48376 6.4167 5.23433 5.55904 6.2788C4.70138 7.32327 4.19129 8.6095 4.1 9.9579C4.09436 9.98274 4.09458 10.0085 4.10066 10.0333C4.10673 10.058 4.11847 10.081 4.13497 10.1004C4.15147 10.1198 4.17226 10.1351 4.1957 10.1451C4.21914 10.1551 4.24458 10.1595 4.27 10.1579H5.48C5.52135 10.1565 5.56095 10.1408 5.59197 10.1135C5.62299 10.0861 5.64351 10.0488 5.65 10.0079C5.76325 8.8929 6.25622 7.85068 7.04633 7.05584C7.83644 6.261 8.8757 5.76181 9.99 5.6419C10.0124 5.64216 10.0346 5.63795 10.0554 5.6295C10.0761 5.62105 10.095 5.60854 10.1108 5.5927C10.1266 5.57686 10.1392 5.55802 10.1476 5.53727C10.1561 5.51652 10.1603 5.4943 10.16 5.4719V1.8339C10.16 1.74372 10.1958 1.65724 10.2596 1.59348C10.3233 1.52972 10.4098 1.4939 10.5 1.4939C10.5902 1.4939 10.6767 1.52972 10.7404 1.59348C10.8042 1.65724 10.84 1.74372 10.84 1.8339V5.9599C10.8423 6.00804 10.8345 6.05613 10.8171 6.10108C10.7997 6.14604 10.7731 6.18686 10.739 6.22094C10.705 6.25502 10.6641 6.28161 10.6192 6.29899C10.5742 6.31638 10.5261 6.32418 10.478 6.3219C6.78 6.3219 4.932 10.8499 7.546 13.4659C10.16 16.0819 14.622 14.2099 14.686 10.4999C14.6855 10.4551 14.6939 10.4106 14.7108 10.3692C14.7277 10.3277 14.7527 10.29 14.7844 10.2583C14.8161 10.2266 14.8538 10.2016 14.8953 10.1847C14.9367 10.1678 14.9812 10.1594 15.026 10.1599H19.15C19.2428 10.1599 19.3319 10.1968 19.3975 10.2624C19.4631 10.328 19.5 10.4171 19.5 10.5099C19.5 10.6027 19.4631 10.6917 19.3975 10.7574C19.3319 10.823 19.2428 10.8599 19.15 10.8599H17.79C17.7478 10.8582 17.7066 10.8728 17.6749 10.9008C17.6432 10.9287 17.6236 10.9678 17.62 11.0099C17.5096 12.5292 16.922 13.9749 15.9411 15.1404C14.9602 16.3059 13.6362 17.1317 12.158 17.4999C11.712 17.6059 11.558 16.9259 12.008 16.8199C13.3281 16.4917 14.5119 15.7576 15.3928 14.721C16.2736 13.6844 16.8071 12.3976 16.918 11.0419C16.9236 11.0171 16.9234 10.9912 16.9173 10.9665C16.9113 10.9418 16.8995 10.9188 16.883 10.8994C16.8665 10.88 16.8457 10.8647 16.8223 10.8547C16.7989 10.8447 16.7734 10.8403 16.748 10.8419H15.516C15.4746 10.8432 15.4351 10.859 15.404 10.8863C15.373 10.9137 15.3525 10.951 15.346 10.9919V10.9999ZM18.1 5.3439L15.642 7.7879C15.5819 7.85309 15.4986 7.89191 15.41 7.8959H13.772C13.7273 7.89982 13.6841 7.9142 13.646 7.9379L10.734 10.8719C10.6685 10.9331 10.5819 10.9665 10.4923 10.965C10.4027 10.9636 10.3171 10.9275 10.2536 10.8642C10.1901 10.801 10.1537 10.7156 10.1519 10.626C10.1501 10.5364 10.1831 10.4496 10.244 10.3839L13.156 7.4479C13.1756 7.43808 13.192 7.42291 13.2033 7.40415C13.2147 7.38539 13.2204 7.36381 13.22 7.3419V5.6999C13.2196 5.65259 13.2288 5.6057 13.247 5.56204C13.2652 5.51838 13.2921 5.47887 13.326 5.4459L15.77 3.0039C15.8172 2.95288 15.8787 2.91725 15.9464 2.90166C16.0141 2.88607 16.085 2.89124 16.1497 2.91649C16.2145 2.94174 16.2701 2.98591 16.3094 3.04324C16.3487 3.10056 16.3698 3.1684 16.37 3.2379V4.5779C16.3728 4.62206 16.3916 4.66367 16.4229 4.69496C16.4542 4.72625 16.4958 4.74507 16.54 4.7479H17.858C17.9283 4.74605 17.9975 4.76543 18.0567 4.8035C18.1158 4.84157 18.1621 4.89657 18.1895 4.96133C18.2169 5.02609 18.2242 5.09761 18.2103 5.16656C18.1965 5.23551 18.1623 5.2987 18.112 5.3479L18.1 5.3439ZM15.3 7.1439L16.724 5.7199C16.7487 5.69704 16.7662 5.66742 16.7743 5.63471C16.7823 5.60201 16.7806 5.56766 16.7693 5.53592C16.758 5.50418 16.7377 5.47646 16.7108 5.45619C16.6839 5.43592 16.6516 5.424 16.618 5.4219H16.018C15.9251 5.42407 15.8351 5.38963 15.7674 5.32603C15.6997 5.26242 15.6596 5.17474 15.656 5.0819V4.4999C15.6558 4.46545 15.6456 4.43181 15.6265 4.40315C15.6074 4.37449 15.5803 4.35206 15.5485 4.33864C15.5168 4.32523 15.4819 4.32142 15.448 4.32769C15.4141 4.33395 15.3828 4.35002 15.358 4.3739L13.958 5.7979C13.9206 5.83046 13.8976 5.87646 13.894 5.9259V7.0319C13.8937 7.0543 13.8979 7.07652 13.9064 7.09727C13.9148 7.11802 13.9274 7.13686 13.9432 7.1527C13.959 7.16854 13.9779 7.18105 13.9986 7.1895C14.0194 7.19795 14.0416 7.20216 14.064 7.2019H15.19C15.234 7.2019 15.276 7.2019 15.296 7.1579L15.3 7.1439ZM13.388 10.5039C13.3888 11.0757 13.2199 11.635 12.9028 12.1108C12.5856 12.5866 12.1344 12.9577 11.6063 13.1769C11.0781 13.3962 10.4968 13.4539 9.93591 13.3427C9.37499 13.2315 8.85967 12.9564 8.45517 12.5521C8.05068 12.1479 7.77519 11.6328 7.66358 11.072C7.55197 10.5111 7.60926 9.92976 7.82818 9.40148C8.04711 8.8732 8.41784 8.42175 8.89344 8.10426C9.36905 7.78676 9.92816 7.6175 10.5 7.6179C10.5859 7.62448 10.6662 7.66327 10.7248 7.72649C10.7833 7.78971 10.8159 7.87272 10.8159 7.9589C10.8159 8.04508 10.7833 8.12808 10.7248 8.1913C10.6662 8.25453 10.5859 8.29331 10.5 8.2999C9.91652 8.2999 9.35695 8.53168 8.94437 8.94426C8.53179 9.35684 8.3 9.91642 8.3 10.4999C8.3 11.0834 8.53179 11.643 8.94437 12.0555C9.35695 12.4681 9.91652 12.6999 10.5 12.6999C11.776 12.6999 12.626 11.7439 12.688 10.4999C12.686 10.4516 12.694 10.4035 12.7114 10.3584C12.7288 10.3134 12.7553 10.2724 12.7892 10.2381C12.8231 10.2037 12.8638 10.1767 12.9086 10.1587C12.9534 10.1407 13.0014 10.1321 13.0497 10.1335C13.098 10.1349 13.1455 10.1462 13.1892 10.1667C13.2329 10.1872 13.272 10.2165 13.3039 10.2527C13.3358 10.289 13.3599 10.3314 13.3747 10.3773C13.3895 10.4233 13.3947 10.4718 13.39 10.5199L13.388 10.5039Z" fill="#C4F500"/>
</svg>
